<svg xmlns="http://www.w3.org/2000/svg" viewBox="0 0 1003.03 649.4"><defs><style>.cls-1{font-size:20px;}.cls-1,.cls-2,.cls-3,.cls-6,.cls-7,.cls-8{fill:#edf4f3;}.cls-1,.cls-2,.cls-3{font-family:OpenSans-Light, Open Sans;font-weight:300;}.cls-2{font-size:21.08px;}.cls-3{font-size:21.08px;}.cls-4,.cls-5{fill:#fff;}.cls-5{stroke:#fff;stroke-width:3px;}.cls-5,.cls-7,.cls-8,.cls-9{stroke-miterlimit:10;}.cls-7,.cls-8,.cls-9{stroke:#edf4f3;}.cls-7,.cls-9{stroke-width:2px;}.cls-9{fill:none;}</style></defs><title>Asset 11</title><g id="Layer_2" data-name="Layer 2"><g id="Infographic"><g id="graph_img"><text class="cls-1" transform="translate(800 323.99)">mobile internet users</text><text class="cls-1" transform="translate(800 353.99)">desktop internet users</text><text class="cls-2" transform="translate(0 314.47)">internet users</text><text class="cls-2" transform="translate(156.3 121.81)">2000<tspan x="0" y="75.89">1600</tspan><tspan x="0" y="151.79">1200</tspan><tspan x="6.02" y="227.68">800</tspan><tspan x="6.02" y="303.57">400</tspan><tspan x="18.05" y="354.17">0</tspan></text><text class="cls-3" transform="translate(229.02 496.93) rotate(-0.43)"><tspan xml:space="preserve">2007   2008   2009   2010   2011   2012   2013   2014   2015</tspan></text><path class="cls-4" d="M518.28,1.45V119.74a1.5,1.5,0,0,0,3,0V1.45a1.5,1.5,0,0,0-3,0Z"/><line class="cls-5" x1="218.78" y1="98.66" x2="218.78" y2="472.27"/><path class="cls-4" d="M219.37,474.76l60.86-.81,145.6-2,176-2.37L754,467.57l50.25-.67,15.41-.21c2.32,0,6.06.65,8.28-.11a3.62,3.62,0,0,1,1,0c.06,0,0-5,0-5l-60.86.81-145.6,2-176,2.37-152.14,2.05-50.25.67-15.41.21c-2.32,0-6.06-.65-8.28.11a3.62,3.62,0,0,1-1,0c-.06,0,0,5,0,5Z"/><line class="cls-6" x1="231.96" y1="449.14" x2="864.4" y2="98.95"/><path class="cls-6" d="M234.23,453l16.93-9.37,46.07-25.51,68.13-37.73,82.71-45.79,91-50.4L631,233.35l85.67-47.44L789,145.83l51.84-28.71c8.23-4.55,16.65-8.87,24.73-13.69.35-.21.72-.4,1.07-.59,5.07-2.81.54-10.59-4.54-7.77l-16.93,9.37L799.13,130,731,167.68l-82.7,45.79-91,50.4-91.88,50.87-85.67,47.44-72.39,40.08L255.49,431c-8.23,4.56-16.65,8.88-24.73,13.7-.35.21-.72.4-1.08.59-5.06,2.81-.53,10.58,4.55,7.77Z"/><line class="cls-7" x1="228.74" y1="260.87" x2="872.89" y2="153.12"/><circle class="cls-8" cx="776.27" cy="321.77" r="7.32"/><circle class="cls-9" cx="776.56" cy="351.34" r="7.32"/><path class="cls-4" d="M519.45,525V648a1.5,1.5,0,0,0,3,0V525a1.5,1.5,0,0,0-3,0Z"/></g></g></g></svg>