<svg xmlns="http://www.w3.org/2000/svg" viewBox="0 0 655.54 356.31"><defs><style>.cls-1{fill:#4d4d4d;}.cls-2{fill:#06517a;}.cls-3{fill:#044d75;}.cls-4{fill:#fff;}.cls-5{fill:#f7f9f9;}.cls-6{fill:#f4f9f8;}.cls-7{fill:#f2f2f2;}</style></defs><title>Asset 1</title><g id="Layer_2" data-name="Layer 2"><g id="Responsive_Webdesign_Infographic" data-name="Responsive Webdesign Infographic"><g id="header_image"><g id="desktop_1st_image" data-name="desktop 1st image"><path class="cls-1" d="M0,343.92c15.47,13.71,48.23,7.82,66.58,8.37,33.78,1,67.57,2,101.37,2.51,63.35,1,126.62-1.29,189.91,1.17,24.21.95,50.84,0,74.74-4.12"/><path class="cls-2" d="M439.37,53.32q-215.44-7.82-431-1.42c.57-8.1,1.26-16.21,2.22-24.29C12.38,12.35,15.23,6,30.52,4.52c6-.56,12-.71,18-1.11,24.66-1.64,49.25-2.8,74-3,53-.39,106.1.22,159.13.46L350,1.18c24.06.1,50.17-2.87,74,.25,11.16,1.47,11.67,2.39,13.67,13.77"/><path class="cls-3" d="M438.9,322.48c-1.14,14-6.89,13.42-19.81,15.53a290.87,290.87,0,0,1-40.26,4.16c-49.62,1.11-99.81-1.18-149.54-1.08-58.8.11-117.58-1.59-176.35-3.38-18.4-.56-46.9,2-48-21.74-.65-13.35-.44-26.83-.85-40.2-.88-28.72-1.71-57.39.07-86.1,2.61-42.25,1.25-84.83,3.57-127.12Q223.62,56.11,439.59,64"/><path class="cls-4" d="M42.94,43.33c8.67-1,17.74-6,16.25-16.1-1.34-9-7.43-15-16.68-15.43-8.83-.18-15.29,8.5-16.65,16.55C24.17,38.36,33.84,44.41,42.94,43.33ZM36.62,29c.72-2.6,2.77-6.61,5.89-6.54,2.88.12,4.77,1.43,5.63,4.08,1.41,4.37-1.11,5.38-5.1,6.12a8.28,8.28,0,0,1-5.22-.47C36,31.34,36.07,31,36.62,29Z"/><path class="cls-5" d="M87.48,42.82c9.86.82,16.83-6.41,17.88-15.81,1.1-9.74-6.38-16.61-15.9-16.82C80.89,9.75,71.65,16,71.17,25,70.68,34.49,78.28,42.06,87.48,42.82ZM81.81,25.13c.72-3.21,4.78-4.46,7.65-4.31,3.47.07,5.87,1.86,5.38,5.42-.55,4-3,6.65-7.25,5.94C84.42,31.64,81,28.71,81.81,25.13Z"/><path class="cls-6" d="M135.34,42.06c8.74-.55,16.29-8,16.3-16.89S143.1,8.41,134.33,8.76c-9.54.39-16.65,8.4-17.27,17.78C116.38,36.62,126,42.63,135.34,42.06Zm-1-22.67c7.68-.31,8.85,10.6,1.18,12-3,.56-7.66-.71-7.89-4.09C127.36,23.63,130.7,19.53,134.33,19.39Z"/><path class="cls-7" d="M163.32,110.51c-14.77-12-35.43-1.85-48.59,7.28C90,135,69.62,156.55,46.2,175.38,10.62,206.51,53.69,240.47,78.37,259c16.7,12.51,36.74,29.69,57.16,35.74,13.49,4,34.3-1.27,35.27-18.24,1-16.78-24.94-33.55-36.2-43.43A255.11,255.11,0,0,0,113,216c-3.28-2.29-6.68-4.43-10-6.68-7.27-4.91-10.15-3.86-5.7-10.92C108.51,180.62,197.29,138.13,163.32,110.51ZM85.73,210.27c7.87,9.81,25.09,16.75,35,24.87,7.76,6.36,14.93,13.3,22.15,20.27,2.9,2.8,11.82,8.49,13,12.55,6,19.88-10,18.46-19.86,15.23l2.79-2.07c2.31-1.7,3.47-4.6,1.91-7.27-1.33-2.27-4.95-3.62-7.27-1.9l-6.24,4.61a6.79,6.79,0,0,0-1.76,2q-3.33-1.68-6.62-3.6c.78-.56,1.55-1.12,2.39-1.62,5.86-3.52.53-12.71-5.36-9.18a46.37,46.37,0,0,0-6.47,4.78q-4-2.69-7.81-5.51L106,261.1c6-3.2.68-12.38-5.36-9.17l-8.44,4.47-5-3.88c.86-.59,1.72-1.16,2.65-1.68,6-3.34.61-12.52-5.36-9.17a43.63,43.63,0,0,0-6,4.17c-2.41-1.82-5-3.8-7.74-5.93a22.25,22.25,0,0,1,4.4-2.8c2.59-1.23,3.26-4.94,1.9-7.27-1.55-2.65-4.66-3.13-7.27-1.9a29.42,29.42,0,0,0-7.32,5.1c-2-1.74-3.89-3.54-5.72-5.39l5.1-3.38c5.68-3.76.36-13-5.36-9.18l-6.68,4.42a36.62,36.62,0,0,1-5.47-10.66h5.05c6.84,0,6.85-10.63,0-10.63h-5.6a24.06,24.06,0,0,1,4.76-9.87,44.51,44.51,0,0,0,6.31,5.81c2.33,1.67,5.91.41,7.27-1.9,1.56-2.68.43-5.6-1.91-7.27.85.61-.86-.79-1-1-.68-.64-1.32-1.31-2-2l-1.1-1.17c1.78-1.47,3.56-2.94,5.3-4.45a62.84,62.84,0,0,1,5.8,6.3c1.79,2.25,5.65,1.87,7.52,0,2.22-2.22,1.79-5.26,0-7.51a64.17,64.17,0,0,0-5.34-5.84L77,162.54c2,1.8,4.06,3.55,6,5.44,4.87,4.82,12.39-2.69,7.52-7.51-1.79-1.77-3.69-3.4-5.57-5.07q4.35-3.87,8.83-7.6c1.89,2.21,3.93,4.25,5.88,6.43,4.58,5.1,12.07-2.43,7.52-7.51-1.66-1.85-3.64-3.5-5.21-5.43,1.34-1,2.66-2,4-3,2-1.4,3.86-2.88,5.74-4.38l2.93,4c1.69,2.31,4.62,3.45,7.27,1.9,2.29-1.33,3.61-4.94,1.91-7.27L120,127.39a81.4,81.4,0,0,1,7.44-5,6.06,6.06,0,0,0,.47.56l4.71,4.61c4.9,4.78,12.42-2.72,7.52-7.51l-2.71-2.65c6.61-2.53,12.27-2.52,16.63,5.62,5.51,10.3-.27,12.71-7.3,19.86-17.55,17.88-40,30.23-57.75,47.57C82.38,197,79.65,202.69,85.73,210.27Z"/><path class="cls-5" d="M365.72,142.25C349,129.74,329,112.56,308.56,106.51c-13.49-4-34.3,1.27-35.27,18.23-1,16.79,24.94,33.56,36.2,43.44a253,253,0,0,0,21.64,17c3.28,2.3,6.67,4.44,10,6.68,7.27,4.92,10.15,3.87,5.69,10.93-11.24,17.8-100,60.29-66,87.91,14.77,12,35.43,1.85,48.58-7.28,24.78-17.19,45.12-38.77,68.54-57.59C433.47,194.69,390.4,160.73,365.72,142.25Zm24.65,76.05c-18,14.46-33.46,31.18-52.22,44.64-8.21,5.88-15.43,13-24.52,17.57C304,285.36,295.82,289,290,278.13c-2.39-4.47-2.58-7.42-1.54-9.95,2.57,2.05,5.11,4.14,7.77,6.07,2.33,1.68,5.92.4,7.27-1.91,1.57-2.68.43-5.58-1.9-7.27-2.15-1.55-4.22-3.21-6.29-4.88.65-.61,1.3-1.23,2-1.93,1.56-1.58,3.2-3.08,4.83-4.58a89.44,89.44,0,0,0,6.68,6.67,5.47,5.47,0,0,0,7.52,0c1.91-1.92,2.18-5.64,0-7.52a81.9,81.9,0,0,1-6.21-6.15q3.84-3.15,7.77-6.18a99.21,99.21,0,0,0,6.84,8.19c4.77,4.91,12.28-2.61,7.51-7.52a84.75,84.75,0,0,1-5.93-7l6.49-4.87a73.24,73.24,0,0,1,5.52,6.13c1.87,2.18,5.6,1.91,7.52,0a5.43,5.43,0,0,0,0-7.52c-1.52-1.76-3-3.51-4.57-5.15,2.8-2.23,5.52-4.53,8.19-6.89a27.5,27.5,0,0,1,3.78,3.31c4.72,5,12.22-2.56,7.51-7.52a36.78,36.78,0,0,0-3.5-3.22,18,18,0,0,0,4-6.49l6.6.41c2.87.18,5.32-2.57,5.32-5.31a5.41,5.41,0,0,0-5.32-5.31l-9.32-.58a2.43,2.43,0,0,1-.14-.2,35.79,35.79,0,0,0-4.83-4.77l5.11-2.4c2.59-1.23,3.26-4.95,1.9-7.27-1.55-2.66-4.66-3.14-7.27-1.91l-9.64,4.54q-2.52-1.58-5.09-3.12l4.32-2.09c2.58-1.26,3.27-4.93,1.91-7.27a5.43,5.43,0,0,0-7.27-1.91L328.76,169a4.85,4.85,0,0,0-.65.55c-1.69-1.14-3.31-2.29-4.74-3.46-.65-.53-1.24-1.12-1.88-1.66,2-1.1,4-2.15,6.11-3.12,2.6-1.21,3.26-4.95,1.9-7.26-1.55-2.67-4.65-3.13-7.26-1.91a98.92,98.92,0,0,0-9.13,4.93c-2.05-1.88-4.07-3.79-6.07-5.71a26.38,26.38,0,0,1,3.6-1.89c2.64-1.1,4.54-3.52,3.71-6.53-.69-2.5-3.87-4.82-6.54-3.71a44.93,44.93,0,0,0-8.64,4.84c-1.49-1.19-3.31-2.57-5.09-4a23.2,23.2,0,0,1,4.27-3c6-3.22.67-12.39-5.36-9.17a30.89,30.89,0,0,0-5.25,3.63c-4.7-19,12.78-16.32,22-12.84,19,7.18,37.4,22.73,53.39,34.89C381.57,167.52,418.91,193.34,390.37,218.3Z"/><path class="cls-4" d="M235.69,104.53c-15.57-.44-20.13,13.39-24.44,26.38a674.71,674.71,0,0,0-22.51,88.54c-2.91,15.65-22.48,82.81,13.21,78.61,14-1.65,22.84-16.43,27.22-28.23,9.26-24.94,14.3-52.61,19.82-78.61,2.7-12.69,5.08-25.45,7.52-38.19,1.65-8.65,6.2-19.87,5.07-28.82C259.76,109.93,248.92,104.88,235.69,104.53Zm-.23,98.85q-4,17.38-8.51,34.62c-3.84,14.6-6.89,43.87-25.1,43.34-10-.29-10.51-1.21-10.13-7.65a24.4,24.4,0,0,1,3.77,1c2.71.93,5.81-1.06,6.53-3.71a5.4,5.4,0,0,0-3.71-6.53,31.75,31.75,0,0,0-5.91-1.33c.19-1.9.44-3.82.72-5.73a43.62,43.62,0,0,0,7.11.81c6.84.16,6.84-10.47,0-10.62a29.63,29.63,0,0,1-5.43-.65c.17-1.08.36-2.16.52-3.22.09-.56.2-1.12.29-1.68a56.25,56.25,0,0,1,6.89,1.24c6.64,1.66,9.47-8.59,2.83-10.25a69.33,69.33,0,0,0-8-1.43c.53-3.1,1-6.22,1.58-9.32a39.88,39.88,0,0,1,8.89,2.2c2.69,1,5.83-1.11,6.54-3.71.82-3-1-5.53-3.71-6.53a46.42,46.42,0,0,0-9.63-2.3c.47-2.3.91-4.6,1.4-6.89l7.25,1.66c6.66,1.52,9.5-8.72,2.83-10.25l-8-1.82c.43-2.24.93-4.82,1.5-7.68l5,1.32c6.62,1.74,9.44-8.5,2.82-10.24l-5.7-1.5c.28-1.32.57-2.66.88-4l9,1.92a5.44,5.44,0,0,0,6.54-3.71c.72-2.64-.9-5.93-3.71-6.53l-9.41-2c.52-2.11,1-4.21,1.61-6.31,2.05.44,4.13.75,6.16,1.29,6.62,1.77,9.44-8.48,2.83-10.25-2-.53-4.05-.83-6.07-1.27.42-1.34.85-2.67,1.28-4a27.29,27.29,0,0,1,5.67,1.45c2.69,1,5.82-1.12,6.53-3.71.82-3-1-5.52-3.71-6.54a27.65,27.65,0,0,0-4.7-1.26c.67-1.56,1.37-3,2.07-4.43a19.6,19.6,0,0,0,5.16,1.57c2.83.42,5.71-.71,6.53-3.71.69-2.51-.85-6.12-3.71-6.54a12.87,12.87,0,0,1-1.73-.45c2-1.91,4.11-3,6.31-2.91C261,115.83,238.22,191.21,235.46,203.38Z"/></g><g id="mobile_1st_image" data-name="mobile 1st image"><path class="cls-1" d="M501.72,333.65c5.26,3.74,16.4,2.13,22.63,2.28,11.49.28,23,.54,34.47.68,21.53.27,43-.35,64.55.32a156.17,156.17,0,0,0,25.41-1.12"/><path class="cls-2" d="M655.54,79.9a993.2,993.2,0,0,0-158.26-1.26c.21-7.21.46-14.41.82-21.59.66-13.56,1.71-19.22,7.32-20.51,2.2-.51,4.4-.64,6.6-1a191.66,191.66,0,0,1,27.16-2.65c19.47-.35,39,.2,58.42.41l25.12.26c8.83.08,18.42-2.55,27.16.22,4.1,1.31,4.28,2.13,5,12.24"/><path class="cls-3" d="M654.37,311.31c-.41,12.47-2.5,11.91-7.19,13.79a46.55,46.55,0,0,1-14.61,3.69c-18,1-36.23-1-54.28-1-21.35.11-42.68-1.41-64-3-6.68-.49-17,1.74-17.44-19.31-.24-11.87-.16-23.84-.31-35.72-.32-25.52-.62-51,0-76.5.95-37.55.46-75.38,1.3-113a971.17,971.17,0,0,1,156.77,1.25"/><path class="cls-4" d="M558.19,62.6c2.76-.33,5.65-1.93,5.17-5.13a5.39,5.39,0,0,0-5.31-4.92c-2.81-.06-4.87,2.71-5.31,5.27C552.21,61,555.29,62.94,558.19,62.6Zm-2-4.58c.23-.83.88-2.1,1.88-2.08a1.77,1.77,0,0,1,1.79,1.3c.45,1.39-.35,1.71-1.62,1.95a2.66,2.66,0,0,1-1.67-.15C556,58.78,556,58.66,556.17,58Z"/><path class="cls-5" d="M572.38,62.43c3.14.26,5.36-2,5.7-5S576,52.1,573,52c-2.73-.14-5.68,1.84-5.83,4.72A5.53,5.53,0,0,0,572.38,62.43Zm-1.81-5.63c.23-1,1.52-1.42,2.44-1.38,1.11,0,1.87.6,1.71,1.73A1.92,1.92,0,0,1,572.41,59C571.4,58.87,570.31,57.94,570.57,56.8Z"/><path class="cls-6" d="M587.63,62.19a5.56,5.56,0,0,0,5.19-5.38,5.5,5.5,0,0,0-5.51-5.23,5.92,5.92,0,0,0-5.51,5.67C581.59,60.46,584.66,62.37,587.63,62.19ZM587.31,55a1.92,1.92,0,0,1,.37,3.82c-1,.18-2.44-.23-2.51-1.31A2.48,2.48,0,0,1,587.31,55Z"/><path class="cls-7" d="M555.12,165.77c-4-3.27-9.66-.5-13.24,2-6.75,4.69-12.29,10.56-18.67,15.69-9.69,8.48,2,17.73,8.76,22.77,4.55,3.4,10,8.08,15.57,9.73,3.68,1.09,9.35-.34,9.61-5s-6.79-9.14-9.86-11.83a73.1,73.1,0,0,0-5.89-4.63c-.9-.62-1.82-1.21-2.72-1.82-2-1.33-2.77-1.05-1.56-3C540.19,184.87,564.37,173.3,555.12,165.77ZM534,193c2.14,2.67,6.83,4.56,9.53,6.77,2.11,1.73,4.07,3.62,6,5.52.8.77,3.22,2.31,3.56,3.42,1.62,5.42-2.74,5-5.41,4.15.25-.19.5-.38.76-.56a1.5,1.5,0,0,0,.52-2,1.45,1.45,0,0,0-2-.52l-1.7,1.25a1.82,1.82,0,0,0-.48.56c-.61-.31-1.21-.63-1.81-1,.22-.15.43-.3.66-.44a1.44,1.44,0,0,0-1.46-2.49,12.38,12.38,0,0,0-1.77,1.3c-.72-.49-1.43-1-2.13-1.51l1.21-.64c1.65-.87.19-3.37-1.46-2.5l-2.3,1.22-1.36-1.06c.23-.15.47-.31.72-.45a1.45,1.45,0,0,0-1.46-2.5,12.54,12.54,0,0,0-1.64,1.13c-.66-.49-1.37-1-2.11-1.61a6.11,6.11,0,0,1,1.2-.76,1.45,1.45,0,0,0-1.46-2.5,8.15,8.15,0,0,0-2,1.39q-.81-.71-1.56-1.47l1.39-.92c1.55-1,.1-3.53-1.46-2.5l-1.82,1.2a10,10,0,0,1-1.49-2.9h1.38a1.45,1.45,0,0,0,0-2.9h-1.53a6.61,6.61,0,0,1,1.3-2.69,11.79,11.79,0,0,0,1.72,1.59,1.47,1.47,0,0,0,2-.52,1.48,1.48,0,0,0-.52-2c.23.17-.24-.22-.28-.26s-.36-.35-.54-.54l-.3-.32,1.45-1.21a18.4,18.4,0,0,1,1.58,1.72,1.46,1.46,0,0,0,2,0,1.5,1.5,0,0,0,0-2,16.87,16.87,0,0,0-1.46-1.59c.69-.62,1.38-1.24,2.06-1.87.55.5,1.11,1,1.63,1.49a1.45,1.45,0,0,0,2-2.05c-.49-.48-1-.93-1.52-1.38.79-.7,1.59-1.39,2.41-2.07.51.6,1.07,1.16,1.6,1.75,1.25,1.39,3.29-.66,2-2.05-.46-.5-1-.95-1.42-1.47.36-.28.72-.56,1.09-.83.54-.38,1.06-.78,1.57-1.19l.8,1.09a1.49,1.49,0,0,0,2,.52,1.46,1.46,0,0,0,.52-2l-1-1.4a19.72,19.72,0,0,1,2-1.35.93.93,0,0,0,.13.15l1.28,1.26c1.34,1.3,3.39-.74,2-2.05l-.74-.72c1.8-.69,3.35-.68,4.53,1.53,1.51,2.81-.07,3.46-2,5.41-4.79,4.87-10.91,8.24-15.74,13C533.07,189.33,532.32,190.88,534,193Z"/><path class="cls-5" d="M610.25,174.42c-4.55-3.41-10-8.09-15.57-9.74-3.68-1.09-9.34.35-9.61,5s6.79,9.14,9.86,11.83a67.49,67.49,0,0,0,5.9,4.63c.89.63,1.82,1.21,2.72,1.82,2,1.34,2.76,1,1.55,3-3.06,4.85-27.24,16.42-18,23.94,4,3.27,9.65.51,13.23-2,6.75-4.68,12.29-10.56,18.67-15.69C628.7,188.7,617,179.45,610.25,174.42ZM617,195.13c-4.9,3.94-9.12,8.5-14.23,12.16-2.24,1.61-4.2,3.55-6.68,4.79s-4.85,2.32-6.44-.65a3.06,3.06,0,0,1-.42-2.71c.7.56,1.39,1.13,2.12,1.65a1.46,1.46,0,0,0,2-.52,1.48,1.48,0,0,0-.52-2c-.59-.42-1.15-.87-1.71-1.32l.54-.53c.42-.43.87-.84,1.31-1.25a24,24,0,0,0,1.82,1.82,1.49,1.49,0,0,0,2,0,1.46,1.46,0,0,0,0-2.05,22.32,22.32,0,0,1-1.69-1.68c.7-.57,1.4-1.13,2.12-1.68a23.38,23.38,0,0,0,1.86,2.23c1.3,1.34,3.34-.71,2-2a22.58,22.58,0,0,1-1.61-1.91l1.77-1.33a19.84,19.84,0,0,1,1.5,1.67,1.45,1.45,0,1,0,2.05-2c-.41-.48-.81-1-1.25-1.4.77-.61,1.51-1.23,2.24-1.88a7.92,7.92,0,0,1,1,.9c1.29,1.36,3.33-.69,2-2a9.81,9.81,0,0,0-.95-.88,4.75,4.75,0,0,0,1.08-1.77l1.8.11a1.45,1.45,0,1,0,0-2.89l-2.54-.16,0,0a9,9,0,0,0-1.31-1.3l1.39-.66a1.45,1.45,0,0,0,.52-2,1.49,1.49,0,0,0-2-.52l-2.63,1.24-1.38-.85L604,183a1.46,1.46,0,0,0,.52-2,1.48,1.48,0,0,0-2-.52l-2.38,1.16c-.07,0-.11.1-.17.15a15.63,15.63,0,0,1-1.3-.95c-.17-.14-.34-.3-.51-.45.54-.3,1.1-.58,1.67-.85a1.46,1.46,0,0,0,.51-2,1.48,1.48,0,0,0-2-.52,25.83,25.83,0,0,0-2.48,1.35c-.56-.51-1.11-1-1.66-1.56a8.32,8.32,0,0,1,1-.51,1.5,1.5,0,0,0,1-1.78,1.45,1.45,0,0,0-1.78-1,11.82,11.82,0,0,0-2.36,1.32c-.4-.33-.9-.71-1.39-1.11a6.41,6.41,0,0,1,1.17-.81c1.64-.88.18-3.38-1.46-2.5a7.76,7.76,0,0,0-1.43,1c-1.28-5.19,3.48-4.45,6-3.5,5.18,2,10.19,6.19,14.55,9.5C614.57,181.3,624.74,188.33,617,195.13Z"/><path class="cls-4" d="M574.83,164.14c-4.24-.12-5.49,3.65-6.66,7.19A183.66,183.66,0,0,0,562,195.45c-.79,4.26-6.12,22.55,3.6,21.41,3.82-.45,6.22-4.48,7.41-7.69,2.53-6.79,3.9-14.33,5.4-21.41.74-3.46,1.38-6.93,2-10.41.45-2.35,1.69-5.41,1.38-7.85C581.39,165.61,578.43,164.24,574.83,164.14Zm-.06,26.93c-.72,3.16-1.5,6.3-2.32,9.43-1.05,4-1.88,11.95-6.84,11.81-2.72-.08-2.86-.33-2.76-2.09a7.11,7.11,0,0,1,1,.28,1.45,1.45,0,1,0,.77-2.79,9.11,9.11,0,0,0-1.61-.36c.05-.52.12-1,.19-1.56a12.66,12.66,0,0,0,1.94.22c1.86,0,1.86-2.85,0-2.9a8.08,8.08,0,0,1-1.48-.17c0-.3.1-.59.14-.88s.06-.3.08-.46a15.13,15.13,0,0,1,1.88.34c1.81.45,2.58-2.34.77-2.79a17.61,17.61,0,0,0-2.17-.39c.15-.85.28-1.69.43-2.54a10.8,10.8,0,0,1,2.43.6,1.46,1.46,0,0,0,1.78-1,1.48,1.48,0,0,0-1-1.78,12.6,12.6,0,0,0-2.63-.63c.13-.62.25-1.25.38-1.87l2,.45c1.81.41,2.59-2.38.77-2.79l-2.17-.5c.11-.61.25-1.31.4-2.09l1.37.36a1.45,1.45,0,0,0,.77-2.79l-1.55-.41c.07-.36.15-.72.23-1.1l2.45.53a1.48,1.48,0,0,0,1.78-1,1.46,1.46,0,0,0-1-1.78l-2.56-.55c.14-.57.28-1.15.44-1.72.56.12,1.12.2,1.68.35a1.45,1.45,0,0,0,.77-2.79c-.55-.14-1.11-.23-1.66-.35.12-.36.23-.72.35-1.08a7.68,7.68,0,0,1,1.55.4,1.45,1.45,0,1,0,.77-2.79,7.47,7.47,0,0,0-1.29-.35c.19-.42.38-.83.57-1.21a5,5,0,0,0,1.4.43,1.49,1.49,0,0,0,1.78-1,1.46,1.46,0,0,0-1-1.78,3.23,3.23,0,0,1-.47-.12,2.42,2.42,0,0,1,1.72-.79C581.72,167.22,575.52,187.75,574.77,191.07Z"/></g></g></g></g></svg>