<svg xmlns="http://www.w3.org/2000/svg" viewBox="0 0 116.67 98.28"><defs><style>.cls-1{fill:#fff;}</style></defs><title>Asset 4</title><g id="Layer_2" data-name="Layer 2"><g id="Infographic"><g id="key_feature_img2"><path class="cls-1" d="M20.67,86.2a1.55,1.55,0,0,0-.19-.67l-1.14-2a2,2,0,0,0-2.49-.72L8.78,86.53l.4-1.12L9.35,85a1.63,1.63,0,0,0-1.19-2.09L6,82.24a1.9,1.9,0,0,0-2.32,1.07h0L2.46,86.81l-.09.25c-.19.55-.47,1.32-.72,2v0c-.15.4-.29.79-.4,1.11L1,91,.56,92.13a1.63,1.63,0,0,0,1.19,2.09l2.12.62c1,.28,2.55.73,3.51,1l4.17,1.2A1.91,1.91,0,0,0,13.88,96l.68-1.9h0A1.63,1.63,0,0,0,13.37,92l-1.76-.51,1.64-.76,6.42-3A1.63,1.63,0,0,0,20.67,86.2Z"/><path class="cls-1" d="M100.25,83.59a1.54,1.54,0,0,0-.57.44l-1.43,1.73A1.52,1.52,0,0,0,98.67,88L106,92.9l-1.27.15-.53.06a1.59,1.59,0,0,0-1.5,1.81l.37,1.94a1.88,1.88,0,0,0,2.09,1.4h0l4-.45.29,0,2.31-.26h0l1.26-.14.91-.1,1.26-.15a1.59,1.59,0,0,0,1.49-1.81l-.36-1.94c-.16-.88-.43-2.33-.6-3.22L115,86.33a1.88,1.88,0,0,0-2.1-1.4l-2.17.25h0A1.58,1.58,0,0,0,109.21,87l.3,1.61-1.49-1-5.8-3.88A2,2,0,0,0,100.25,83.59Z"/><path class="cls-1" d="M17.33,16.07a2.15,2.15,0,0,0,.64-.48l1.62-1.91a1.67,1.67,0,0,0-.37-2.49L11.51,5.9l1.39-.17.57-.07a1.83,1.83,0,0,0,1.7-2l-.32-2.12A2,2,0,0,0,12.64,0h0L8.3.54,8,.58,5.48.88h0l-1.38.17-1,.12-1.38.16A1.82,1.82,0,0,0,0,3.33L.33,5.45C.48,6.42.71,8,.86,9l.62,4.18A2,2,0,0,0,3.7,14.67l2.36-.28h0a1.82,1.82,0,0,0,1.69-2l-.26-1.76,1.57,1.08,6.14,4.21A2.17,2.17,0,0,0,17.33,16.07Z"/><path class="cls-1" d="M98.87,13.51a1.66,1.66,0,0,0,.35.6l1.57,1.64a1.93,1.93,0,0,0,2.51.18L110,10.81l-.1,1.13,0,.47a1.67,1.67,0,0,0,1.64,1.73l2.14.15a1.75,1.75,0,0,0,1.91-1.47h0l.31-3.53,0-.26c0-.55.11-1.32.18-2V7c0-.41.07-.8.1-1.12l.07-.81.09-1.12a1.67,1.67,0,0,0-1.64-1.72L112.49,2l-3.55-.25-4.21-.29A1.74,1.74,0,0,0,102.81,3l-.16,1.93h0a1.66,1.66,0,0,0,1.63,1.72l1.78.12-1.35,1-5.29,4.07A1.49,1.49,0,0,0,98.87,13.51Z"/><path class="cls-1" d="M25.56,12.91h0a1.43,1.43,0,0,0-1,.36,1.16,1.16,0,0,0-.41.87V82.31a1.32,1.32,0,0,0,1.37,1.24l68.68.12h0a1.47,1.47,0,0,0,1-.36,1.15,1.15,0,0,0,.4-.87V14.27A1.3,1.3,0,0,0,94.23,13ZM92.86,81.2l-65.93-.12V15.38l65.93.12Z"/><path class="cls-1" d="M46.34,37.93a7,7,0,0,0,4.72-1.75,5.59,5.59,0,0,0,0-8.49,7,7,0,0,0-4.72-1.77h0c-3.68,0-6.68,2.69-6.68,6a5.67,5.67,0,0,0,1.95,4.25,7,7,0,0,0,4.71,1.76Zm-3.93-6a3.75,3.75,0,0,1,3.93-3.53h0a4.13,4.13,0,0,1,2.78,1,3.28,3.28,0,0,1,0,5,4.12,4.12,0,0,1-2.78,1h0a4.12,4.12,0,0,1-2.78-1A3.37,3.37,0,0,1,42.41,31.92Z"/><path class="cls-1" d="M33.1,66H86.78a1.3,1.3,0,0,0,1.37-1.23v-44a1.3,1.3,0,0,0-1.37-1.23H33a1.3,1.3,0,0,0-1.37,1.23V64.48a1,1,0,0,0,.09.43A1.31,1.31,0,0,0,33.1,66Zm52.31-2.78v.32H34.47V55.42L43,46l10.33,7.9a1.48,1.48,0,0,0,1,.28,1.39,1.39,0,0,0,1-.48l14-16.58,16.08,14Zm-51-41.17h51V47.67L70.14,34.34A1.49,1.49,0,0,0,69.08,34a1.4,1.4,0,0,0-1,.48L54,51.13,43.68,43.27a1.46,1.46,0,0,0-1-.29,1.44,1.44,0,0,0-.94.45l-7.33,8.16Z"/></g></g></g></svg>