<svg xmlns="http://www.w3.org/2000/svg" viewBox="0 0 187 78.41"><defs><style>.cls-1{fill:#fff;}</style></defs><title>Asset 16</title><g id="Layer_2" data-name="Layer 2"><g id="Infographic"><g id="key_feature_img1"><rect class="cls-1" x="42.79" y="0.18" width="53.27" height="4.8"/><rect class="cls-1" x="42.79" y="14.92" width="48.8" height="4.8"/><rect class="cls-1" x="42.79" y="29.66" width="45.24" height="4.8"/><rect class="cls-1" x="42.79" y="44.4" width="54.17" height="4.8"/><rect class="cls-1" x="42.79" y="58.66" width="43.33" height="4.8"/><polygon class="cls-1" points="139.94 58.88 88.15 58.43 88.13 63.23 139.93 63.68 139.94 58.88"/><polygon class="cls-1" points="139.99 44.2 98.48 43.84 98.47 48.65 139.98 49.01 139.99 44.2"/><polygon class="cls-1" points="140.04 29.46 89.88 29.03 89.86 33.83 140.03 34.26 140.04 29.46"/><polygon class="cls-1" points="140.09 15.14 93.31 14.73 93.3 19.53 140.08 19.94 140.09 15.14"/><polygon class="cls-1" points="140.14 0.36 98.48 0 98.47 4.8 140.13 5.16 140.14 0.36"/><path class="cls-1" d="M186.72,49.89a6.26,6.26,0,0,0,.28-2l-.1-6.5c0-2.65-1.62-4.83-3.52-4.85l-16.93-.18L168.14,34l.7-1a6.27,6.27,0,0,0-.1-6.81l-3-4.13a2.82,2.82,0,0,0-4.87-.06h0l-5.28,7.46-.39.55c-.82,1.17-2,2.81-3.06,4.32l0,.06-1.68,2.37-1.2,1.7-1.68,2.37a6.26,6.26,0,0,0,.11,6.8l3,4.14,5,6.86,5.9,8.12a2.82,2.82,0,0,0,4.88.06l2.88-4.08h0a6.26,6.26,0,0,0-.11-6.8l-2.49-3.43,3.45,0,13.48.14C185,52.71,186.2,51.55,186.72,49.89Z"/><path class="cls-1" d="M.25,39.21a7.3,7.3,0,0,0-.25,2l.06,6.5c0,2.65,1.41,4.78,3.08,4.74L18,52.07l-1.49,2.45-.62,1A7,7,0,0,0,16,62.34l2.62,4c1.19,1.84,3.12,1.8,4.28-.09h0l4.66-7.64.34-.56,2.7-4.42,0-.06,1.48-2.43,1.07-1.74L34.64,47a7,7,0,0,0-.06-6.81l-2.62-4L27.6,29.45l-5.15-7.94c-1.2-1.85-3.13-1.8-4.29.1l-2.54,4.17h0a7,7,0,0,0,.07,6.8l2.18,3.36-3,.07L3,36.3C1.76,36.33.71,37.52.25,39.21Z"/><rect class="cls-1" x="42.79" y="73.41" width="36.52" height="4.8"/><polygon class="cls-1" points="139.89 73.6 81.27 73.09 81.25 77.9 139.88 78.41 139.89 73.6"/></g></g></g></svg>