<svg xmlns="http://www.w3.org/2000/svg" viewBox="0 0 134 87"><defs><style>.cls-1{fill:#fff;}.cls-2{fill:#f1f1f2;}</style></defs><title>Asset 18</title><g id="Layer_2" data-name="Layer 2"><g id="Infographic"><g id="key_feature_img3"><path class="cls-1" d="M93.75,70.46V2a2,2,0,0,0-2-2H2A2,2,0,0,0,0,2V70.46a2,2,0,0,0,2,2H91.71A2,2,0,0,0,93.75,70.46Zm-4.08-2H4.08V4H89.67Z"/><path class="cls-1" d="M12.81,57.06H80.93a2,2,0,0,0,2-2V10.22a2,2,0,0,0-2-2H12.81a2,2,0,0,0-2,2V55.07A2,2,0,0,0,12.81,57.06Zm2-44.85h64V53.08h-64Z"/><path class="cls-1" d="M46.87,58.62a4.28,4.28,0,1,0,4.38,4.28A4.34,4.34,0,0,0,46.87,58.62Zm0,6.17a1.89,1.89,0,1,1,1.94-1.89A1.92,1.92,0,0,1,46.87,64.79Z"/><path class="cls-2" d="M129.46,35.78H102.94a4.5,4.5,0,0,0-4.54,4.43V82.56A4.5,4.5,0,0,0,102.94,87h26.52A4.5,4.5,0,0,0,134,82.56V40.21A4.5,4.5,0,0,0,129.46,35.78Zm2.43,46.78a2.4,2.4,0,0,1-2.43,2.38H102.94a2.4,2.4,0,0,1-2.43-2.38V40.21a2.4,2.4,0,0,1,2.43-2.37h26.52a2.4,2.4,0,0,1,2.43,2.37Z"/><path class="cls-2" d="M116.2,38.91a.48.48,0,1,0-.49-.48A.49.49,0,0,0,116.2,38.91Z"/><path class="cls-2" d="M114.37,40.83H118a.48.48,0,0,0,.48-.48.47.47,0,0,0-.48-.47h-3.66a.47.47,0,0,0-.48.47A.48.48,0,0,0,114.37,40.83Z"/><path class="cls-2" d="M112.74,40.72a.37.37,0,0,0,.38-.37.38.38,0,0,0-.76,0A.37.37,0,0,0,112.74,40.72Z"/><path class="cls-2" d="M128.64,41.85H103.76a.52.52,0,0,0-.52.52v36a.52.52,0,0,0,.52.52h24.88a.52.52,0,0,0,.53-.52v-36A.52.52,0,0,0,128.64,41.85Zm-.53,36H104.29v-35h23.82Z"/><path class="cls-1" d="M70.41,85.78a2,2,0,0,0,2-2v-7a2,2,0,0,0-2-2H23.33a2,2,0,0,0-2,2v7a2,2,0,0,0,2,2Zm-45-7h43v3h-43Z"/><path class="cls-2" d="M116.2,79a2.9,2.9,0,1,0,3,2.9A2.94,2.94,0,0,0,116.2,79Zm0,4.77a1.87,1.87,0,1,1,1.92-1.87A1.9,1.9,0,0,1,116.2,83.72Z"/></g></g></g></svg>