<svg xmlns="http://www.w3.org/2000/svg" viewBox="0 0 116 98.28"><defs><style>.cls-1{fill:#fff;}</style></defs><title>Asset 17</title><g id="Layer_2" data-name="Layer 2"><g id="Infographic"><g id="key_feature_img2"><path class="cls-1" d="M17.23,16.07a2,2,0,0,0,.63-.48l1.61-1.91a1.67,1.67,0,0,0-.36-2.49L11.44,5.9l1.38-.17.57-.07a1.83,1.83,0,0,0,1.69-2l-.31-2.12A2,2,0,0,0,12.57,0h0L8.26.54l-.32,0L5.45.88h0l-1.37.17-1,.12L1.7,1.33A1.82,1.82,0,0,0,0,3.33L.33,5.45C.47,6.42.71,8,.85,9l.62,4.18a2,2,0,0,0,2.21,1.52L6,14.39H6a1.83,1.83,0,0,0,1.68-2l-.26-1.76L9,11.71l6.1,4.21A2.15,2.15,0,0,0,17.23,16.07Z"/><path class="cls-1" d="M98.3,13.51a1.55,1.55,0,0,0,.36.6l1.55,1.64a1.92,1.92,0,0,0,2.5.18l6.61-5.12-.1,1.13,0,.47a1.67,1.67,0,0,0,1.63,1.73l2.13.15a1.75,1.75,0,0,0,1.9-1.47h0l.3-3.53,0-.26c0-.55.12-1.32.18-2V7c0-.41.07-.8.1-1.12l.07-.81.1-1.12A1.68,1.68,0,0,0,114,2.18L111.85,2l-3.54-.25-4.18-.29A1.74,1.74,0,0,0,102.22,3l-.16,1.93h0a1.66,1.66,0,0,0,1.63,1.72l1.77.12-1.35,1-5.26,4.07A1.53,1.53,0,0,0,98.3,13.51Z"/><path class="cls-1" d="M25.41,12.91h0a1.43,1.43,0,0,0-1,.36,1.15,1.15,0,0,0-.4.87V82.31a1.31,1.31,0,0,0,1.36,1.24l68.28.12h0a1.43,1.43,0,0,0,1-.36,1.15,1.15,0,0,0,.4-.87V14.27A1.3,1.3,0,0,0,93.69,13ZM92.33,81.2l-65.56-.12V15.38l65.56.12Z"/><path class="cls-1" d="M46.08,37.93a6.94,6.94,0,0,0,4.68-1.75,5.61,5.61,0,0,0,0-8.49,7,7,0,0,0-4.69-1.77h0c-3.66,0-6.64,2.69-6.64,6a5.69,5.69,0,0,0,1.94,4.25,7,7,0,0,0,4.69,1.76Zm-3.91-6a3.73,3.73,0,0,1,3.91-3.53h0a4.1,4.1,0,0,1,2.77,1A3.39,3.39,0,0,1,50,31.93a3.33,3.33,0,0,1-1.15,2.5,4.09,4.09,0,0,1-2.77,1h0a4.09,4.09,0,0,1-2.76-1A3.32,3.32,0,0,1,42.17,31.92Z"/><path class="cls-1" d="M32.91,66H86.28a1.3,1.3,0,0,0,1.37-1.23v-44a1.3,1.3,0,0,0-1.37-1.23H32.83a1.3,1.3,0,0,0-1.37,1.23V64.48a1.22,1.22,0,0,0,.09.43A1.32,1.32,0,0,0,32.91,66Zm52-2.78v.32H34.27V55.42L42.73,46,53,53.86a1.5,1.5,0,0,0,1,.28,1.39,1.39,0,0,0,.94-.48l14-16.58,16,14ZM34.19,22.08H84.92V47.67L69.73,34.34a1.45,1.45,0,0,0-1-.34,1.36,1.36,0,0,0-1,.48l-14,16.65L43.43,43.27a1.44,1.44,0,0,0-1-.29,1.38,1.38,0,0,0-.93.45l-7.3,8.16Z"/><path class="cls-1" d="M20.56,86.2a1.72,1.72,0,0,0-.2-.67l-1.13-2a2,2,0,0,0-2.48-.72l-8,3.72.4-1.12L9.3,85a1.64,1.64,0,0,0-1.19-2.09L6,82.24a1.88,1.88,0,0,0-2.3,1.07h0L2.45,86.81l-.09.25c-.2.55-.47,1.32-.72,2v0c-.15.4-.29.79-.4,1.11L1,91l-.4,1.11a1.64,1.64,0,0,0,1.19,2.09l2.11.62,3.49,1,4.15,1.2A1.89,1.89,0,0,0,13.8,96l.68-1.9h0A1.64,1.64,0,0,0,13.29,92l-1.75-.51,1.64-.76,6.38-3A1.66,1.66,0,0,0,20.56,86.2Z"/><path class="cls-1" d="M99.67,83.59a1.5,1.5,0,0,0-.56.44l-1.43,1.73A1.53,1.53,0,0,0,98.1,88l7.25,4.87-1.27.15-.52.06a1.59,1.59,0,0,0-1.5,1.81l.36,1.94a1.88,1.88,0,0,0,2.08,1.4h0l3.95-.45.29,0,2.29-.26h0l1.26-.14.9-.1,1.25-.15A1.59,1.59,0,0,0,116,95.3l-.36-1.94c-.17-.88-.44-2.33-.6-3.22l-.71-3.81a1.87,1.87,0,0,0-2.08-1.4l-2.16.25h0A1.59,1.59,0,0,0,108.58,87l.3,1.61-1.48-1-5.76-3.88A2,2,0,0,0,99.67,83.59Z"/></g></g></g></svg>