<svg xmlns="http://www.w3.org/2000/svg" viewBox="0 0 694.47 181.68"><defs><style>.cls-1{fill:#fff;}.cls-2{fill:#f1f1f2;}.cls-3{font-size:20px;font-family:OpenSans-Light, Open Sans;font-weight:300;}.cls-3,.cls-4{fill:#edf4f3;}</style></defs><title>Asset 12</title><g id="Layer_2" data-name="Layer 2"><g id="Infographic"><g id="key_feature_img"><rect class="cls-1" x="42.79" y="13.05" width="53.27" height="4.8"/><rect class="cls-1" x="42.79" y="27.79" width="48.8" height="4.8"/><rect class="cls-1" x="42.79" y="42.53" width="45.24" height="4.8"/><rect class="cls-1" x="42.79" y="57.27" width="54.17" height="4.8"/><rect class="cls-1" x="42.79" y="71.53" width="43.33" height="4.8"/><polygon class="cls-1" points="139.94 71.75 88.15 71.3 88.13 76.1 139.93 76.55 139.94 71.75"/><polygon class="cls-1" points="139.99 57.07 98.48 56.71 98.47 61.52 139.98 61.88 139.99 57.07"/><polygon class="cls-1" points="140.04 42.33 89.88 41.9 89.86 46.7 140.03 47.13 140.04 42.33"/><polygon class="cls-1" points="140.09 28.01 93.31 27.6 93.3 32.4 140.08 32.81 140.09 28.01"/><polygon class="cls-1" points="140.14 13.23 98.48 12.87 98.47 17.67 140.13 18.03 140.14 13.23"/><path class="cls-1" d="M186.72,62.76a6.26,6.26,0,0,0,.28-2l-.1-6.5c0-2.65-1.62-4.83-3.52-4.85l-16.93-.18,1.69-2.39.7-1a6.27,6.27,0,0,0-.1-6.81l-3-4.13a2.82,2.82,0,0,0-4.87-.07v0l-5.28,7.46-.39.55c-.82,1.17-2,2.81-3.06,4.32l0,.06-1.68,2.37-1.2,1.7-1.68,2.37a6.26,6.26,0,0,0,.11,6.8l3,4.14,5,6.85,5.9,8.13a2.82,2.82,0,0,0,4.88.06l2.88-4.08h0a6.26,6.26,0,0,0-.11-6.8l-2.49-3.44,3.45,0,13.48.14C185,65.58,186.2,64.42,186.72,62.76Z"/><path class="cls-1" d="M.25,52.08a7.3,7.3,0,0,0-.25,2l.06,6.5c0,2.65,1.41,4.78,3.08,4.74L18,64.94l-1.49,2.45-.62,1A7,7,0,0,0,16,75.21l2.62,4c1.19,1.84,3.12,1.8,4.28-.09h0l4.66-7.64.34-.56,2.7-4.42,0-.06L32.1,64l1.07-1.74,1.47-2.42a7,7,0,0,0-.06-6.81L32,49,27.6,42.32l-5.15-7.94c-1.2-1.85-3.13-1.8-4.29.1l-2.54,4.17h0a7,7,0,0,0,.07,6.8l2.18,3.36-3,.07L3,49.17C1.76,49.2.71,50.39.25,52.08Z"/><path class="cls-1" d="M307.24,16.07a2.07,2.07,0,0,0,.62-.48l1.61-1.91a1.67,1.67,0,0,0-.36-2.49L301.45,5.9l1.37-.17.58-.07a1.82,1.82,0,0,0,1.68-2l-.31-2.12A2,2,0,0,0,302.57,0h0l-4.3.52-.32,0-2.49.3h0l-1.37.17-1,.12-1.37.16a1.82,1.82,0,0,0-1.68,2l.31,2.12c.15,1,.38,2.55.52,3.52l.62,4.18a2,2,0,0,0,2.21,1.52l2.35-.28h0a1.83,1.83,0,0,0,1.68-2l-.26-1.76L299,11.71l6.1,4.21A2.17,2.17,0,0,0,307.24,16.07Z"/><path class="cls-1" d="M388.3,13.51a1.55,1.55,0,0,0,.36.6l1.55,1.64a1.92,1.92,0,0,0,2.5.18l6.61-5.12-.1,1.13,0,.47a1.67,1.67,0,0,0,1.63,1.73l2.13.15a1.74,1.74,0,0,0,1.9-1.47h0l.3-3.53,0-.26c0-.55.11-1.32.17-2V7c0-.41.07-.8.1-1.12l.07-.81.1-1.12A1.68,1.68,0,0,0,404,2.18L401.85,2l-3.53-.25-4.19-.29A1.74,1.74,0,0,0,392.22,3l-.16,1.93h0a1.67,1.67,0,0,0,1.63,1.72l1.77.12-1.35,1-5.26,4.07A1.53,1.53,0,0,0,388.3,13.51Z"/><path class="cls-1" d="M315.41,12.91h0a1.43,1.43,0,0,0-1,.36,1.15,1.15,0,0,0-.4.87V82.31a1.31,1.31,0,0,0,1.36,1.24l68.28.12h0a1.43,1.43,0,0,0,1-.36,1.15,1.15,0,0,0,.4-.87V14.27A1.29,1.29,0,0,0,383.69,13ZM382.33,81.2l-65.56-.12V15.38l65.56.12Z"/><path class="cls-1" d="M336.08,37.93a6.94,6.94,0,0,0,4.68-1.75,5.61,5.61,0,0,0,0-8.49,7,7,0,0,0-4.69-1.77h0c-3.66,0-6.63,2.69-6.64,6a5.73,5.73,0,0,0,1.94,4.25,7,7,0,0,0,4.69,1.76Zm-3.91-6a3.73,3.73,0,0,1,3.91-3.53h0a4.09,4.09,0,0,1,2.76,1,3.3,3.3,0,0,1,0,5,4.09,4.09,0,0,1-2.76,1h0a4.09,4.09,0,0,1-2.76-1A3.32,3.32,0,0,1,332.17,31.92Z"/><path class="cls-1" d="M322.91,66h53.38a1.3,1.3,0,0,0,1.36-1.23v-44a1.3,1.3,0,0,0-1.36-1.23H322.83a1.3,1.3,0,0,0-1.36,1.23V64.48a1,1,0,0,0,.09.43A1.31,1.31,0,0,0,322.91,66Zm52-2.78v.32H324.27V55.42L332.73,46,343,53.86a1.5,1.5,0,0,0,1,.28,1.39,1.39,0,0,0,.94-.48l14-16.58,16,14ZM324.19,22.08h50.73V47.67L359.73,34.34a1.45,1.45,0,0,0-1.05-.34,1.38,1.38,0,0,0-1,.48l-14,16.65-10.23-7.86a1.44,1.44,0,0,0-1-.29,1.38,1.38,0,0,0-.93.45l-7.3,8.16Z"/><path class="cls-1" d="M616.17,75.4V6.93a2,2,0,0,0-2-2H524.47a2,2,0,0,0-2,2V75.4a2,2,0,0,0,2,2h89.66A2,2,0,0,0,616.17,75.4Zm-4.07-2H526.5V8.92h85.6Z"/><path class="cls-1" d="M535.24,62h68.12a2,2,0,0,0,2-2V15.15a2,2,0,0,0-2-2H535.24a2,2,0,0,0-2,2V60A2,2,0,0,0,535.24,62Zm2-44.86h64V58h-64Z"/><path class="cls-1" d="M569.3,63.56a4.28,4.28,0,1,0,4.38,4.28A4.33,4.33,0,0,0,569.3,63.56Zm0,6.17a1.9,1.9,0,1,1,1.94-1.89A1.92,1.92,0,0,1,569.3,69.73Z"/><path class="cls-2" d="M651.89,40.71H625.37a4.5,4.5,0,0,0-4.54,4.44V87.5a4.49,4.49,0,0,0,4.54,4.43h26.52a4.49,4.49,0,0,0,4.54-4.43V45.15A4.5,4.5,0,0,0,651.89,40.71Zm2.43,46.79a2.41,2.41,0,0,1-2.43,2.38H625.37a2.41,2.41,0,0,1-2.43-2.38V45.15a2.41,2.41,0,0,1,2.43-2.38h26.52a2.41,2.41,0,0,1,2.43,2.38Z"/><path class="cls-2" d="M638.63,43.84a.48.48,0,1,0-.49-.48A.48.48,0,0,0,638.63,43.84Z"/><path class="cls-2" d="M636.8,45.76h3.66a.47.47,0,0,0,.48-.47.48.48,0,0,0-.48-.48H636.8a.49.49,0,0,0-.49.48A.48.48,0,0,0,636.8,45.76Z"/><path class="cls-2" d="M635.17,45.66a.38.38,0,0,0,.38-.37.38.38,0,0,0-.76,0A.38.38,0,0,0,635.17,45.66Z"/><path class="cls-2" d="M651.07,46.79H626.19a.52.52,0,0,0-.53.51v36a.52.52,0,0,0,.53.51h24.88a.51.51,0,0,0,.52-.51v-36A.51.51,0,0,0,651.07,46.79Zm-.53,36H626.72v-35h23.82Z"/><rect class="cls-1" x="42.79" y="86.28" width="36.52" height="4.8"/><polygon class="cls-1" points="139.89 86.47 81.27 85.97 81.25 90.77 139.88 91.28 139.89 86.47"/><path class="cls-1" d="M310.56,86.2a1.72,1.72,0,0,0-.2-.67l-1.13-2a2,2,0,0,0-2.47-.72l-8,3.72.4-1.12.17-.46a1.64,1.64,0,0,0-1.19-2.09l-2.1-.62a1.89,1.89,0,0,0-2.31,1.07h0l-1.24,3.49-.09.25c-.19.55-.47,1.32-.72,2v0c-.15.4-.28.79-.4,1.11L291,91l-.4,1.11a1.64,1.64,0,0,0,1.19,2.09l2.11.62,3.49,1,4.15,1.2A1.89,1.89,0,0,0,303.8,96l.68-1.9h0A1.63,1.63,0,0,0,303.29,92l-1.75-.51,1.64-.76,6.38-3A1.66,1.66,0,0,0,310.56,86.2Z"/><path class="cls-1" d="M389.67,83.59a1.59,1.59,0,0,0-.56.44l-1.43,1.73a1.53,1.53,0,0,0,.43,2.27l7.24,4.87-1.27.15-.52.06a1.58,1.58,0,0,0-1.49,1.81l.36,1.94a1.88,1.88,0,0,0,2.08,1.4h0l4-.45.28,0,2.3-.26h0l1.25-.14.9-.1,1.26-.15A1.59,1.59,0,0,0,406,95.3l-.36-1.94c-.17-.88-.44-2.33-.6-3.22l-.71-3.81a1.87,1.87,0,0,0-2.08-1.4l-2.16.25h0A1.59,1.59,0,0,0,398.58,87l.3,1.61-1.48-1-5.76-3.88A2,2,0,0,0,389.67,83.59Z"/><path class="cls-1" d="M592.84,90.71a2,2,0,0,0,2-2v-7a2,2,0,0,0-2-2H545.76a2,2,0,0,0-2,2v7a2,2,0,0,0,2,2Zm-45-6.95h43v3h-43Z"/><path class="cls-2" d="M638.63,83.89a2.9,2.9,0,1,0,3,2.9A2.94,2.94,0,0,0,638.63,83.89Zm0,4.77a1.87,1.87,0,1,1,1.91-1.87A1.9,1.9,0,0,1,638.63,88.66Z"/></g><text class="cls-3" transform="translate(41.52 157.31)">flexible grid</text><text class="cls-3" transform="translate(284.52 157.31)">flexible images</text><path class="cls-4" d="M501.63,143.9a5.38,5.38,0,0,0-4.22,1.72,6.8,6.8,0,0,0-1.55,4.71,7.06,7.06,0,0,0,1.46,4.75,5.22,5.22,0,0,0,4.16,1.69,11.44,11.44,0,0,0,3.3-.46v.88a10.83,10.83,0,0,1-3.54.49,6,6,0,0,1-4.73-1.94,7.92,7.92,0,0,1-1.73-5.43,8.54,8.54,0,0,1,.82-3.84,6,6,0,0,1,2.38-2.56,7,7,0,0,1,3.6-.9,8.66,8.66,0,0,1,3.74.78l-.4.9A7.18,7.18,0,0,0,501.63,143.9Z"/><path class="cls-4" d="M515.84,153.81a3.41,3.41,0,0,1-1.31,2.83,5.49,5.49,0,0,1-3.49,1,11,11,0,0,1-4-.57v-1a10,10,0,0,0,3.93.66,4.41,4.41,0,0,0,2.79-.81,2.55,2.55,0,0,0,1-2.11,2.46,2.46,0,0,0-.34-1.35,3.13,3.13,0,0,0-1.12-1,14.06,14.06,0,0,0-2.26-.95,7.7,7.7,0,0,1-3-1.62,3.23,3.23,0,0,1-.84-2.33,3.18,3.18,0,0,1,1.26-2.61,4.92,4.92,0,0,1,3.22-1,9.42,9.42,0,0,1,3.78.76l-.36.86a8.73,8.73,0,0,0-3.4-.75,4,4,0,0,0-2.52.74,2.4,2.4,0,0,0-.93,2,2.64,2.64,0,0,0,.28,1.3,2.69,2.69,0,0,0,1,.91,12.84,12.84,0,0,0,2.24,1,12.32,12.32,0,0,1,2.51,1.12,3.61,3.61,0,0,1,1.23,1.23A3.33,3.33,0,0,1,515.84,153.81Z"/><path class="cls-4" d="M526.74,153.81a3.44,3.44,0,0,1-1.31,2.83,5.49,5.49,0,0,1-3.49,1,11.06,11.06,0,0,1-4-.57v-1a10.09,10.09,0,0,0,3.94.66,4.41,4.41,0,0,0,2.79-.81,2.74,2.74,0,0,0,.69-3.46,3.13,3.13,0,0,0-1.12-1,14.06,14.06,0,0,0-2.26-.95,7.83,7.83,0,0,1-3-1.62,3.27,3.27,0,0,1-.83-2.33,3.2,3.2,0,0,1,1.25-2.61,5,5,0,0,1,3.23-1,9.42,9.42,0,0,1,3.78.76l-.36.86a8.77,8.77,0,0,0-3.4-.75,4,4,0,0,0-2.52.74,2.41,2.41,0,0,0-.94,2,2.3,2.3,0,0,0,1.23,2.21,13.4,13.4,0,0,0,2.25,1,12.59,12.59,0,0,1,2.51,1.12,3.61,3.61,0,0,1,1.23,1.23A3.44,3.44,0,0,1,526.74,153.81Z"/><path class="cls-4" d="M537.3,146.57a3.18,3.18,0,0,1-.84,2.24,3.88,3.88,0,0,1-2.24,1.16V150a4.37,4.37,0,0,1,2.62,1.09,3.15,3.15,0,0,1,.9,2.36,3.77,3.77,0,0,1-1.36,3.1,6.09,6.09,0,0,1-3.93,1.1,8.36,8.36,0,0,1-3.79-.81v-1a8,8,0,0,0,1.84.67,8.4,8.4,0,0,0,1.92.24,5.11,5.11,0,0,0,3.24-.87,3,3,0,0,0,1.08-2.47,2.47,2.47,0,0,0-1.11-2.17,5.71,5.71,0,0,0-3.25-.77h-1.55v-.93h1.57a4.28,4.28,0,0,0,2.81-.85,2.76,2.76,0,0,0,1-2.29,2.4,2.4,0,0,0-.84-1.91,3.28,3.28,0,0,0-2.21-.71,6,6,0,0,0-2,.29,9.09,9.09,0,0,0-2,1l-.48-.65a6.42,6.42,0,0,1,2-1.1,7.3,7.3,0,0,1,2.38-.4,4.49,4.49,0,0,1,3,.93A3.29,3.29,0,0,1,537.3,146.57Z"/><path class="cls-4" d="M552.65,157.49l-5.32-13.19h-.08c0,.81.08,1.64.08,2.48v10.71h-1V143.21h1.54L553,155.77H553l5.06-12.56h1.5v14.28h-1V146.67c0-.76,0-1.54.11-2.35h-.07l-5.34,13.17Z"/><path class="cls-4" d="M567.67,157.68a4.63,4.63,0,0,1-3.61-1.42,5.74,5.74,0,0,1-1.29-4A6.16,6.16,0,0,1,564,148.2a4.11,4.11,0,0,1,3.37-1.53,3.63,3.63,0,0,1,3,1.31,5.39,5.39,0,0,1,1.08,3.55v.78h-7.65a5.1,5.1,0,0,0,1,3.34,3.6,3.6,0,0,0,2.87,1.15,9.41,9.41,0,0,0,1.6-.12,10.08,10.08,0,0,0,1.74-.55V157a7.52,7.52,0,0,1-1.66.53A8.78,8.78,0,0,1,567.67,157.68Zm-.28-10.15a3.13,3.13,0,0,0-2.46,1,4.77,4.77,0,0,0-1.09,2.91h6.56a4.57,4.57,0,0,0-.8-2.88A2.61,2.61,0,0,0,567.39,147.53Z"/><path class="cls-4" d="M578.25,146.67a4.42,4.42,0,0,1,2,.42,4,4,0,0,1,1.5,1.43h.06c0-.82-.06-1.62-.06-2.41v-3.82h1v15.2h-.64l-.24-1.62h-.08a3.92,3.92,0,0,1-3.47,1.81,4.15,4.15,0,0,1-3.36-1.36,6,6,0,0,1-1.17-4,6.66,6.66,0,0,1,1.16-4.21A4,4,0,0,1,578.25,146.67Zm0,.88a3,3,0,0,0-2.62,1.22,6,6,0,0,0-.87,3.54q0,4.51,3.51,4.51a3.17,3.17,0,0,0,2.63-1,5.56,5.56,0,0,0,.84-3.45v-.16a5.92,5.92,0,0,0-.82-3.54A3.15,3.15,0,0,0,578.25,147.55Z"/><path class="cls-4" d="M586.13,143.92c0-.62.2-.93.61-.93a.57.57,0,0,1,.48.24,1.21,1.21,0,0,1,.17.69,1.27,1.27,0,0,1-.17.7.56.56,0,0,1-.48.25C586.33,144.87,586.13,144.56,586.13,143.92Zm1.1,13.57h-1V146.87h1Z"/><path class="cls-4" d="M597.23,157.49l-.24-1.68h-.08a5,5,0,0,1-1.65,1.45,4.42,4.42,0,0,1-2,.42,3.44,3.44,0,0,1-2.44-.8,2.85,2.85,0,0,1-.87-2.21,2.76,2.76,0,0,1,1.3-2.42,7,7,0,0,1,3.74-.9l2-.06v-.71a3.58,3.58,0,0,0-.62-2.28,2.36,2.36,0,0,0-2-.77,6.6,6.6,0,0,0-3.06.82l-.36-.84a8.07,8.07,0,0,1,3.46-.82,3.44,3.44,0,0,1,2.61.91,4,4,0,0,1,.86,2.83v7.06Zm-3.91-.69a3.39,3.39,0,0,0,3.67-3.67v-1l-1.86.08a7.09,7.09,0,0,0-3.19.69,2,2,0,0,0-1,1.84,2,2,0,0,0,.61,1.55A2.47,2.47,0,0,0,593.32,156.8Z"/><path class="cls-4" d="M618.82,150.33a8.51,8.51,0,0,1-1.23,4.75,5.47,5.47,0,0,1-3.41,2.41l3.26,3.4h-1.63l-2.75-3.23-.32,0h-.3a5.86,5.86,0,0,1-4.68-2,8,8,0,0,1-1.7-5.4,7.9,7.9,0,0,1,1.71-5.37,5.92,5.92,0,0,1,4.68-1.95,5.82,5.82,0,0,1,4.68,2A8,8,0,0,1,618.82,150.33Zm-11.68,0a7.33,7.33,0,0,0,1.37,4.74,4.77,4.77,0,0,0,3.93,1.68,4.84,4.84,0,0,0,3.94-1.66,7.39,7.39,0,0,0,1.36-4.76,7.27,7.27,0,0,0-1.36-4.73,4.81,4.81,0,0,0-3.93-1.65,4.87,4.87,0,0,0-3.93,1.66A7.2,7.2,0,0,0,607.14,150.33Z"/><path class="cls-4" d="M622.7,146.87v6.88a3.36,3.36,0,0,0,.67,2.33,2.74,2.74,0,0,0,2.09.72,3.66,3.66,0,0,0,2.79-1,4.47,4.47,0,0,0,.89-3.12v-5.86h1v10.62h-.82l-.17-1.47h-.06a4,4,0,0,1-3.68,1.66q-3.63,0-3.63-3.87v-6.94Z"/><path class="cls-4" d="M637.94,157.68a4.64,4.64,0,0,1-3.61-1.42,5.74,5.74,0,0,1-1.29-4,6.21,6.21,0,0,1,1.25-4.06,4.12,4.12,0,0,1,3.37-1.53,3.62,3.62,0,0,1,3,1.31,5.39,5.39,0,0,1,1.08,3.55v.78h-7.64a5,5,0,0,0,1,3.34,3.57,3.57,0,0,0,2.86,1.15,9.41,9.41,0,0,0,1.6-.12,10.08,10.08,0,0,0,1.74-.55V157a7.52,7.52,0,0,1-1.66.53A8.64,8.64,0,0,1,637.94,157.68Zm-.28-10.15a3.16,3.16,0,0,0-2.46,1,4.71,4.71,0,0,0-1.08,2.91h6.56a4.63,4.63,0,0,0-.8-2.88A2.64,2.64,0,0,0,637.66,147.53Z"/><path class="cls-4" d="M648.81,146.67a8.47,8.47,0,0,1,1.45.13l-.19.93a5.65,5.65,0,0,0-1.37-.16,2.67,2.67,0,0,0-2.23,1.15,4.7,4.7,0,0,0-.87,2.91v5.86h-1V146.87h.82l.1,1.92h.07a4.56,4.56,0,0,1,1.4-1.65A3.29,3.29,0,0,1,648.81,146.67Z"/><path class="cls-4" d="M652.28,143.92c0-.62.2-.93.61-.93a.56.56,0,0,1,.48.24,1.21,1.21,0,0,1,.17.69,1.27,1.27,0,0,1-.17.7.54.54,0,0,1-.48.25C652.48,144.87,652.28,144.56,652.28,143.92Zm1.1,13.57h-1V146.87h1Z"/><path class="cls-4" d="M661.22,157.68a4.61,4.61,0,0,1-3.6-1.42,5.7,5.7,0,0,1-1.3-4,6.21,6.21,0,0,1,1.25-4.06,4.14,4.14,0,0,1,3.37-1.53,3.62,3.62,0,0,1,3,1.31,5.39,5.39,0,0,1,1.08,3.55v.78h-7.64a5,5,0,0,0,1,3.34,3.58,3.58,0,0,0,2.86,1.15,9.41,9.41,0,0,0,1.6-.12,10.08,10.08,0,0,0,1.74-.55V157a7.36,7.36,0,0,1-1.66.53A8.64,8.64,0,0,1,661.22,157.68Zm-.28-10.15a3.16,3.16,0,0,0-2.46,1,4.71,4.71,0,0,0-1.08,2.91H664a4.63,4.63,0,0,0-.8-2.88A2.63,2.63,0,0,0,660.94,147.53Z"/><path class="cls-4" d="M674.5,154.72a2.55,2.55,0,0,1-1.09,2.2,5.28,5.28,0,0,1-3.07.76A7.29,7.29,0,0,1,667,157V156a7.34,7.34,0,0,0,3.38.8,4.42,4.42,0,0,0,2.38-.52,1.58,1.58,0,0,0,.82-1.39,1.72,1.72,0,0,0-.65-1.35,7.15,7.15,0,0,0-2.13-1.07,12.21,12.21,0,0,1-2.24-1,3.12,3.12,0,0,1-1-.94,2.33,2.33,0,0,1-.33-1.27,2.17,2.17,0,0,1,1-1.89,4.89,4.89,0,0,1,2.8-.69,8.35,8.35,0,0,1,3.26.64l-.36.88a7.63,7.63,0,0,0-2.9-.64A4.15,4.15,0,0,0,669,148a1.3,1.3,0,0,0-.76,1.19,1.65,1.65,0,0,0,.59,1.33,8.19,8.19,0,0,0,2.31,1.11,11.87,11.87,0,0,1,2.09.93,3.16,3.16,0,0,1,1,.94A2.32,2.32,0,0,1,674.5,154.72Z"/><path class="cls-4" d="M681.85,153.86a3.68,3.68,0,0,1,.72-2.29,8.34,8.34,0,0,1,2.68-2l-.73-.8a5.5,5.5,0,0,1-1-1.36,3.2,3.2,0,0,1-.31-1.39,2.78,2.78,0,0,1,.93-2.21,3.64,3.64,0,0,1,2.5-.82,3.46,3.46,0,0,1,2.4.79A2.75,2.75,0,0,1,690,146a2.88,2.88,0,0,1-.68,1.88,8.93,8.93,0,0,1-2.47,1.9l4.41,4.47a7.62,7.62,0,0,0,1-1.54,10.48,10.48,0,0,0,.73-2h.94a10.73,10.73,0,0,1-2,4.16l2.6,2.62h-1.32l-1.89-1.93a8.34,8.34,0,0,1-1.6,1.29,6.36,6.36,0,0,1-1.54.62,7.78,7.78,0,0,1-1.9.21,4.72,4.72,0,0,1-3.2-1A3.52,3.52,0,0,1,681.85,153.86Zm4.44,2.94a6,6,0,0,0,2.29-.42,6.22,6.22,0,0,0,2-1.43l-4.72-4.74a12.3,12.3,0,0,0-1.92,1.2,2.85,2.85,0,0,0-1.12,2.42,2.74,2.74,0,0,0,.9,2.18A3.71,3.71,0,0,0,686.29,156.8Zm-2-10.8a2.74,2.74,0,0,0,.39,1.43,9.13,9.13,0,0,0,1.49,1.7,7.58,7.58,0,0,0,2.15-1.55,2.5,2.5,0,0,0,.61-1.65,1.92,1.92,0,0,0-.61-1.49,2.29,2.29,0,0,0-1.64-.58,2.54,2.54,0,0,0-1.75.57A2,2,0,0,0,684.29,146Z"/><path class="cls-4" d="M503.42,177.81a3.44,3.44,0,0,1-1.31,2.83,5.49,5.49,0,0,1-3.49,1,11.06,11.06,0,0,1-4-.57v-1a10.09,10.09,0,0,0,3.94.66,4.41,4.41,0,0,0,2.79-.81,2.74,2.74,0,0,0,.69-3.46,3.13,3.13,0,0,0-1.12-1,14.06,14.06,0,0,0-2.26-.95,7.83,7.83,0,0,1-3-1.62,3.27,3.27,0,0,1-.83-2.33A3.2,3.2,0,0,1,496,168a5,5,0,0,1,3.23-1,9.42,9.42,0,0,1,3.78.76l-.36.86a8.77,8.77,0,0,0-3.4-.75,4,4,0,0,0-2.52.74,2.41,2.41,0,0,0-.94,2,2.3,2.3,0,0,0,1.23,2.21,13.4,13.4,0,0,0,2.25,1,12.59,12.59,0,0,1,2.51,1.12,3.61,3.61,0,0,1,1.23,1.23A3.44,3.44,0,0,1,503.42,177.81Z"/><path class="cls-4" d="M510.43,181.68a4.57,4.57,0,0,1-3.56-1.43,5.79,5.79,0,0,1-1.29-4,5.89,5.89,0,0,1,1.34-4.1,4.7,4.7,0,0,1,3.66-1.47,7.35,7.35,0,0,1,2.64.48L513,172a7.56,7.56,0,0,0-2.39-.46,3.65,3.65,0,0,0-3,1.2,5.3,5.3,0,0,0-1,3.47,5.13,5.13,0,0,0,1,3.37,3.45,3.45,0,0,0,2.81,1.21,7,7,0,0,0,2.69-.51v.9A6.15,6.15,0,0,1,510.43,181.68Z"/><path class="cls-4" d="M519.88,170.67a8.28,8.28,0,0,1,1.44.13l-.18.93a5.79,5.79,0,0,0-1.38-.16,2.67,2.67,0,0,0-2.23,1.15,4.7,4.7,0,0,0-.87,2.91v5.86h-1V170.87h.82l.1,1.92h.06a4.66,4.66,0,0,1,1.4-1.65A3.3,3.3,0,0,1,519.88,170.67Z"/><path class="cls-4" d="M527.77,181.68a4.61,4.61,0,0,1-3.61-1.42,5.74,5.74,0,0,1-1.29-4,6.16,6.16,0,0,1,1.25-4.06,4.11,4.11,0,0,1,3.36-1.53,3.62,3.62,0,0,1,3,1.31,5.34,5.34,0,0,1,1.09,3.55v.78h-7.65a5,5,0,0,0,1,3.34,3.59,3.59,0,0,0,2.87,1.15,9.28,9.28,0,0,0,1.59-.12,10.42,10.42,0,0,0,1.75-.55V181a7.69,7.69,0,0,1-1.66.53A8.78,8.78,0,0,1,527.77,181.68Zm-.29-10.15a3.16,3.16,0,0,0-2.46,1,4.71,4.71,0,0,0-1.08,2.91h6.56a4.63,4.63,0,0,0-.8-2.88A2.62,2.62,0,0,0,527.48,171.53Z"/><path class="cls-4" d="M538.74,181.68a4.61,4.61,0,0,1-3.6-1.42,5.7,5.7,0,0,1-1.3-4,6.21,6.21,0,0,1,1.25-4.06,4.14,4.14,0,0,1,3.37-1.53,3.62,3.62,0,0,1,3,1.31,5.39,5.39,0,0,1,1.08,3.55v.78h-7.64a5,5,0,0,0,1,3.34,3.58,3.58,0,0,0,2.86,1.15,9.41,9.41,0,0,0,1.6-.12,10.08,10.08,0,0,0,1.74-.55V181a7.52,7.52,0,0,1-1.66.53A8.64,8.64,0,0,1,538.74,181.68Zm-.28-10.15a3.16,3.16,0,0,0-2.46,1,4.71,4.71,0,0,0-1.08,2.91h6.56a4.63,4.63,0,0,0-.8-2.88A2.64,2.64,0,0,0,538.46,171.53Z"/><path class="cls-4" d="M552.84,181.49V174.6a3.38,3.38,0,0,0-.68-2.33,2.73,2.73,0,0,0-2.09-.72,3.63,3.63,0,0,0-2.79,1,4.53,4.53,0,0,0-.88,3.12v5.86h-1V170.87h.82l.19,1.46h.06a4,4,0,0,1,3.68-1.66q3.62,0,3.61,3.87v7Z"/><path class="cls-4" d="M563.67,175.27v6.22h-1V167.21h3.4a6.4,6.4,0,0,1,3.92,1,3.5,3.5,0,0,1,1.27,3,3.9,3.9,0,0,1-.75,2.42,4.17,4.17,0,0,1-2.3,1.41l3.87,6.51h-1.19l-3.68-6.22Zm0-.86h2.72a4.31,4.31,0,0,0,2.8-.81,2.86,2.86,0,0,0,1-2.38,2.8,2.8,0,0,0-1-2.37,5.36,5.36,0,0,0-3.18-.74h-2.36Z"/><path class="cls-4" d="M578.6,181.68a4.61,4.61,0,0,1-3.61-1.42,5.74,5.74,0,0,1-1.29-4A6.16,6.16,0,0,1,575,172.2a4.11,4.11,0,0,1,3.36-1.53,3.62,3.62,0,0,1,3,1.31,5.34,5.34,0,0,1,1.09,3.55v.78h-7.65a5,5,0,0,0,1,3.34,3.59,3.59,0,0,0,2.87,1.15,9.28,9.28,0,0,0,1.59-.12,10.42,10.42,0,0,0,1.75-.55V181a7.52,7.52,0,0,1-1.66.53A8.78,8.78,0,0,1,578.6,181.68Zm-.29-10.15a3.16,3.16,0,0,0-2.46,1,4.71,4.71,0,0,0-1.08,2.91h6.56a4.63,4.63,0,0,0-.8-2.88A2.62,2.62,0,0,0,578.31,171.53Z"/><path class="cls-4" d="M591.87,178.72a2.54,2.54,0,0,1-1.08,2.2,5.31,5.31,0,0,1-3.08.76,7.29,7.29,0,0,1-3.38-.65V180a7.37,7.37,0,0,0,3.38.8,4.46,4.46,0,0,0,2.39-.52,1.59,1.59,0,0,0,.81-1.39,1.69,1.69,0,0,0-.65-1.35,7.15,7.15,0,0,0-2.13-1.07,12.54,12.54,0,0,1-2.24-1,3.12,3.12,0,0,1-1-.94,2.33,2.33,0,0,1-.33-1.27,2.19,2.19,0,0,1,1-1.89,4.89,4.89,0,0,1,2.8-.69,8.31,8.31,0,0,1,3.26.64l-.36.88a7.63,7.63,0,0,0-2.9-.64,4.18,4.18,0,0,0-2.06.43,1.3,1.3,0,0,0-.76,1.19,1.68,1.68,0,0,0,.59,1.33,8.34,8.34,0,0,0,2.31,1.11,11.54,11.54,0,0,1,2.09.93,3.06,3.06,0,0,1,1,.94A2.32,2.32,0,0,1,591.87,178.72Z"/><path class="cls-4" d="M603.38,176.17a6,6,0,0,1-1.26,4.05,4.33,4.33,0,0,1-3.47,1.46,4.47,4.47,0,0,1-2.46-.67,4.33,4.33,0,0,1-1.64-1.93,7.16,7.16,0,0,1-.56-2.91,6,6,0,0,1,1.26-4,4.32,4.32,0,0,1,3.45-1.45,4.27,4.27,0,0,1,3.44,1.47A6,6,0,0,1,603.38,176.17Zm-8.38,0a5.36,5.36,0,0,0,1,3.41,3.64,3.64,0,0,0,5.44,0,5.42,5.42,0,0,0,1-3.41,5.36,5.36,0,0,0-1-3.41,3.3,3.3,0,0,0-2.73-1.21,3.24,3.24,0,0,0-2.71,1.2A5.38,5.38,0,0,0,595,176.17Z"/><path class="cls-4" d="M607.29,181.49h-1v-15.2h1Z"/><path class="cls-4" d="M611.68,170.87v6.88a3.36,3.36,0,0,0,.68,2.33,2.73,2.73,0,0,0,2.09.72,3.69,3.69,0,0,0,2.79-1,4.52,4.52,0,0,0,.89-3.12v-5.86h1v10.62h-.82l-.18-1.47H618a4,4,0,0,1-3.68,1.66c-2.42,0-3.62-1.29-3.62-3.87v-6.94Z"/><path class="cls-4" d="M625.44,180.82a7.44,7.44,0,0,0,1.6-.15v.78a5,5,0,0,1-1.62.23,2.63,2.63,0,0,1-2.07-.75,3.46,3.46,0,0,1-.67-2.36v-6.86h-1.57v-.56l1.57-.44.49-2.41h.5v2.57h3.11v.84h-3.11v6.72a3.06,3.06,0,0,0,.43,1.81A1.54,1.54,0,0,0,625.44,180.82Z"/><path class="cls-4" d="M629.2,167.92c0-.62.21-.93.62-.93a.54.54,0,0,1,.47.24,1.14,1.14,0,0,1,.17.69,1.19,1.19,0,0,1-.17.7.53.53,0,0,1-.47.25C629.41,168.87,629.2,168.56,629.2,167.92Zm1.11,13.57h-1V170.87h1Z"/><path class="cls-4" d="M642.64,176.17a6,6,0,0,1-1.26,4.05,4.33,4.33,0,0,1-3.48,1.46,4.49,4.49,0,0,1-2.46-.67,4.31,4.31,0,0,1-1.63-1.93,7,7,0,0,1-.56-2.91,6,6,0,0,1,1.26-4,4.32,4.32,0,0,1,3.45-1.45,4.27,4.27,0,0,1,3.44,1.47A6,6,0,0,1,642.64,176.17Zm-8.38,0a5.42,5.42,0,0,0,1,3.41,3.64,3.64,0,0,0,5.44,0,5.42,5.42,0,0,0,1-3.41,5.3,5.3,0,0,0-1-3.41,3.67,3.67,0,0,0-5.44,0A5.44,5.44,0,0,0,634.26,176.17Z"/><path class="cls-4" d="M653,181.49V174.6a3.38,3.38,0,0,0-.67-2.33,2.74,2.74,0,0,0-2.09-.72,3.63,3.63,0,0,0-2.79,1,4.53,4.53,0,0,0-.88,3.12v5.86h-1V170.87h.82l.19,1.46h0a4,4,0,0,1,3.69-1.66c2.4,0,3.61,1.29,3.61,3.87v7Z"/></g></g></svg>