<svg xmlns="http://www.w3.org/2000/svg" viewBox="0 0 134.4 87.68"><defs><style>.cls-1{fill:#fff;}.cls-2{fill:#f1f1f2;}</style></defs><title>Asset 5</title><g id="Layer_2" data-name="Layer 2"><g id="Infographic"><g id="key_feature_img3"><path class="cls-1" d="M94,71V2a2,2,0,0,0-2-2H2A2,2,0,0,0,0,2V71a2,2,0,0,0,2,2H92A2,2,0,0,0,94,71Zm-4.09-2H4.09V4H89.94Z"/><path class="cls-1" d="M12.85,57.51H81.18a2,2,0,0,0,2-2V10.3a2,2,0,0,0-2-2H12.85a2,2,0,0,0-2,2V55.5A2,2,0,0,0,12.85,57.51Zm2-45.21H79.13V53.5H14.89Z"/><path class="cls-1" d="M47,59.08a4.32,4.32,0,1,0,4.4,4.31A4.35,4.35,0,0,0,47,59.08Zm0,6.22a1.91,1.91,0,1,1,2-1.91A1.93,1.93,0,0,1,47,65.3Z"/><path class="cls-1" d="M70.63,86.45a2,2,0,0,0,2-2v-7a2,2,0,0,0-2-2H23.4a2,2,0,0,0-2,2v7a2,2,0,0,0,2,2Zm-45.19-7H68.58v3H25.44Z"/><path class="cls-2" d="M129.85,36.06h-26.6a4.51,4.51,0,0,0-4.55,4.47V83.21a4.51,4.51,0,0,0,4.55,4.47h26.6a4.51,4.51,0,0,0,4.55-4.47V40.53A4.51,4.51,0,0,0,129.85,36.06Zm2.44,47.15a2.42,2.42,0,0,1-2.44,2.4h-26.6a2.43,2.43,0,0,1-2.44-2.4V40.53a2.43,2.43,0,0,1,2.44-2.4h26.6a2.42,2.42,0,0,1,2.44,2.4Z"/><path class="cls-2" d="M116.55,39.21a.48.48,0,1,0-.49-.48A.48.48,0,0,0,116.55,39.21Z"/><path class="cls-2" d="M114.72,41.15h3.67a.49.49,0,0,0,.48-.48.48.48,0,0,0-.48-.48h-3.67a.48.48,0,0,0-.49.48A.49.49,0,0,0,114.72,41.15Z"/><path class="cls-2" d="M113.08,41a.38.38,0,0,0,.38-.37.38.38,0,0,0-.76,0A.38.38,0,0,0,113.08,41Z"/><path class="cls-2" d="M116.55,79.57a2.92,2.92,0,1,0,3,2.92A3,3,0,0,0,116.55,79.57Zm0,4.81a1.89,1.89,0,1,1,1.92-1.89A1.91,1.91,0,0,1,116.55,84.38Z"/><path class="cls-2" d="M129,42.18h-25a.52.52,0,0,0-.53.52V79a.52.52,0,0,0,.53.51h25a.52.52,0,0,0,.53-.51V42.7A.52.52,0,0,0,129,42.18Zm-.53,36.28H104.6V43.22h23.9Z"/></g></g></g></svg>