<svg xmlns="http://www.w3.org/2000/svg" viewBox="0 0 187.76 78.41"><defs><style>.cls-1{fill:#fff;}</style></defs><title>Asset 3</title><g id="Layer_2" data-name="Layer 2"><g id="Infographic"><g id="key_feature_img1"><g id="GRID"><rect class="cls-1" x="42.96" y="0.18" width="53.48" height="4.8"/><rect class="cls-1" x="42.96" y="14.92" width="49" height="4.8"/><rect class="cls-1" x="42.96" y="29.66" width="45.43" height="4.8"/><rect class="cls-1" x="42.96" y="44.4" width="54.39" height="4.8"/><rect class="cls-1" x="42.96" y="58.66" width="43.51" height="4.8"/><rect class="cls-1" x="42.96" y="73.41" width="36.67" height="4.8"/><polygon class="cls-1" points="140.46 73.6 81.59 73.09 81.58 77.9 140.44 78.41 140.46 73.6"/><polygon class="cls-1" points="140.51 58.88 88.5 58.43 88.49 63.23 140.49 63.68 140.51 58.88"/><polygon class="cls-1" points="140.56 44.2 98.88 43.84 98.86 48.65 140.54 49.01 140.56 44.2"/><polygon class="cls-1" points="140.61 29.46 90.24 29.03 90.22 33.83 140.59 34.26 140.61 29.46"/><polygon class="cls-1" points="140.66 15.14 93.69 14.73 93.67 19.53 140.64 19.94 140.66 15.14"/><polygon class="cls-1" points="140.71 0.36 98.88 0 98.86 4.8 140.69 5.16 140.71 0.36"/></g><path class="cls-1" d="M187.47,49.89a6.26,6.26,0,0,0,.29-2l-.1-6.5c0-2.65-1.63-4.83-3.54-4.85l-17-.18,1.7-2.39.7-1a6.25,6.25,0,0,0-.1-6.81l-3-4.13a2.84,2.84,0,0,0-4.89-.06h0l-5.3,7.46-.39.55-3.07,4.32,0,.06L151,36.78l-1.21,1.7-1.68,2.37a6.24,6.24,0,0,0,.1,6.8l3,4.14,5,6.86,5.93,8.12a2.84,2.84,0,0,0,4.9.06L170,62.75h0a6.26,6.26,0,0,0-.1-6.8l-2.51-3.43,3.47,0,13.53.14C185.76,52.71,187,51.55,187.47,49.89Z"/><path class="cls-1" d="M.25,39.21a7.3,7.3,0,0,0-.25,2l.06,6.5c0,2.65,1.42,4.78,3.09,4.74l14.94-.36-1.5,2.45-.62,1A7,7,0,0,0,16,62.34l2.63,4c1.2,1.84,3.13,1.8,4.3-.09h0l4.68-7.64.34-.56,2.72-4.42,0-.06,1.49-2.43,1.07-1.74L34.78,47a7,7,0,0,0-.06-6.81l-2.63-4c-1.21-1.84-3.17-4.86-4.37-6.71l-5.18-7.94c-1.2-1.85-3.14-1.8-4.31.1l-2.55,4.17h0a7,7,0,0,0,.06,6.8l2.19,3.36-3,.07L3,36.3C1.77,36.33.72,37.52.25,39.21Z"/></g></g></g></svg>