<svg xmlns="http://www.w3.org/2000/svg" viewBox="0 0 744.93 755.59"><defs><style>.cls-1{isolation:isolate;}.cls-2{fill:none;stroke:#fff;stroke-miterlimit:10;stroke-width:4px;}.cls-3{fill:#f4f4f4;}.cls-4{font-size:30.16px;fill:#edf4f3;font-family:OpenSans-Light, Open Sans;font-weight:300;}.cls-10,.cls-12,.cls-5{fill:#fff;}.cls-6{fill:#f9f9f9;}.cls-7{fill:#005e9c;}.cls-8{opacity:0.5;mix-blend-mode:overlay;}.cls-10,.cls-9{font-size:15.4px;letter-spacing:0.02em;}.cls-11,.cls-9{fill:#231f20;}.cls-10,.cls-11,.cls-12,.cls-9{font-family:OpenSans-Semibold, Open Sans;font-weight:600;}.cls-11,.cls-12{font-size:17.37px;letter-spacing:0.02em;}.cls-13{fill:#f1f1f2;}</style></defs><title>Asset 1</title><g class="cls-1"><g id="Layer_2" data-name="Layer 2"><g id="Infographic"><g id="Main_image" data-name="Main image"><path class="cls-2" d="M108.51,177.61c9.47-10.51,118.25-128,260-130.68,161.07-3,353.33,142.46,353.33,353.33,0,195.14-158.19,353.33-353.33,353.33C209.57,753.59,90.85,626.62,87,601"/><path class="cls-3" d="M74.24,264.41l5,0a52.28,52.28,0,0,0,0-104.46l-5,0,0,0a52.29,52.29,0,0,0,0,104.43ZM42.66,246a58.63,58.63,0,0,1,10.69-6.15,62.53,62.53,0,0,0,14.89,19.77A48.36,48.36,0,0,1,42.66,246ZM75,260a59.75,59.75,0,0,1-17.89-21.61A60.38,60.38,0,0,1,75,234.78Zm0-29.21a64.76,64.76,0,0,0-19.53,3.89,59.67,59.67,0,0,1-4.17-18.69H75Zm0-18.86-23.83,0a60.22,60.22,0,0,1,3.26-19.35A63.41,63.41,0,0,0,75,196.91Zm10.12,47.87a62.24,62.24,0,0,0,15.39-20.63A58.72,58.72,0,0,1,112,245.37,48.22,48.22,0,0,1,85.13,259.75Zm29.57-17.44a62.27,62.27,0,0,0-12.62-6.91,63.81,63.81,0,0,0,4.18-19.49h18.87A47.79,47.79,0,0,1,114.7,242.31Zm1.51-58.23a47.74,47.74,0,0,1,9.07,27.78h-18.9a64.56,64.56,0,0,0-3.31-20.12A64.3,64.3,0,0,0,116.21,184.08Zm-2.49-3.19a60.26,60.26,0,0,1-12,7.06,63.23,63.23,0,0,0-16.54-23.31A48.07,48.07,0,0,1,113.72,180.89Zm-34.67-16a59.32,59.32,0,0,1,18.86,24.57,59.36,59.36,0,0,1-18.86,3.47Zm0,32.09a63.3,63.3,0,0,0,20.25-3.73,60.33,60.33,0,0,1,3,18.64H79.05Zm0,19h23.16A60,60,0,0,1,98.29,234a64.91,64.91,0,0,0-19.24-3.3Zm0,18.81a60.17,60.17,0,0,1,17.65,3,59.69,59.69,0,0,1-17.65,21.8Zm-4-70.29v28.42a59.36,59.36,0,0,1-19.12-4.09A59.54,59.54,0,0,1,75,164.44Zm-6.76.33a63.28,63.28,0,0,0-16.07,22.39A59.59,59.59,0,0,1,41,180.21,48.11,48.11,0,0,1,68.25,164.77ZM38.41,183.34a63.22,63.22,0,0,0,12.3,7.6,64.26,64.26,0,0,0-3.57,21H28.79A47.67,47.67,0,0,1,38.41,183.34ZM28.94,216H47.26a63.66,63.66,0,0,0,4.47,20.21A62.66,62.66,0,0,0,39.93,243,47.77,47.77,0,0,1,28.94,216Z"/><text class="cls-4" transform="translate(43.26 298.35)">open url</text><text class="cls-4" transform="translate(517.79 352.22)">one code</text><text class="cls-4" transform="translate(428.02 640.78)">CSS3 media<tspan x="0" y="36.2">queries</tspan></text><text class="cls-4" transform="translate(167.67 639.5)">multiple <tspan x="0" y="36.2">device</tspan></text><text class="cls-4" transform="translate(268.98 129.06)">single content</text><path class="cls-5" d="M401.43,0H336.35a6.2,6.2,0,0,0-6.2,6.2V86.78a6.22,6.22,0,0,0,6.2,6.19h65.08a6.22,6.22,0,0,0,6.2-6.19V6.2A6.22,6.22,0,0,0,401.43,0Zm-7.34,80.58h-50.4a3.1,3.1,0,0,1,0-6.2h50.4a3.1,3.1,0,1,1,0,6.2Zm0-15.5h-50.4a3.1,3.1,0,0,1,0-6.2h50.4a3.1,3.1,0,1,1,0,6.2Zm0-15.49h-50.4a3.1,3.1,0,0,1,0-6.2h50.4a3.1,3.1,0,1,1,0,6.2Zm0-15.5h-50.4a3.1,3.1,0,0,1,0-6.2h50.4a3.1,3.1,0,1,1,0,6.2Zm0-15.5h-50.4a3.1,3.1,0,1,1,0-6.19h50.4a3.1,3.1,0,1,1,0,6.19Z"/><rect class="cls-6" x="656.93" y="308.08" width="87.99" height="79.59"/><polygon class="cls-7" points="744.93 311.26 744.93 306.41 716.19 306.41 716.19 277.67 656.93 277.67 656.93 311.26 744.93 311.26"/><polygon class="cls-7" points="718.14 277.67 718.14 304.46 744.93 304.46 718.14 277.67"/><g class="cls-8"><text class="cls-9" transform="translate(666.29 300.78)">HTML</text></g><text class="cls-10" transform="translate(665.93 300.42)">HTML</text><path class="cls-7" d="M691.51,357.65,674.92,349v-1.28l16.59-9.91v2l-14.41,8.46,14.41,7.42Z"/><path class="cls-7" d="M706.14,332.65l-9.54,30.56h-1.83l9.53-30.56Z"/><path class="cls-7" d="M709.4,355.64l14.41-7.42-14.41-8.46v-2l16.6,9.91V349l-16.6,8.69Z"/><rect class="cls-6" x="605.63" y="587.76" width="89.28" height="81.1"/><polygon class="cls-7" points="694.91 591.34 694.91 586.42 665.75 586.42 665.75 557.26 605.63 557.26 605.63 591.34 694.91 591.34"/><polygon class="cls-7" points="667.73 557.26 667.73 584.44 694.91 584.44 667.73 557.26"/><g class="cls-8"><text class="cls-11" transform="translate(615.12 581.2)">CSS</text></g><text class="cls-12" transform="translate(614.76 580.84)">CSS</text><path class="cls-7" d="M656.63,639a1.52,1.52,0,1,1-1.52-1.52A1.51,1.51,0,0,1,656.63,639Z"/><path class="cls-7" d="M644.56,639a1.52,1.52,0,1,1-1.52-1.52A1.51,1.51,0,0,1,644.56,639Z"/><path class="cls-7" d="M631.46,641.11a3.8,3.8,0,0,0,1.2,3.07,6.56,6.56,0,0,0,4.08,1.08v1.83c-2.62,0-4.49-.5-5.59-1.51a6,6,0,0,1-1.67-4.65v-6.8q0-4.12-4.63-4.21v-1.61a5.32,5.32,0,0,0,3.54-1,3.8,3.8,0,0,0,1.09-3v-7q0-6,7.26-6.15v1.82a6.5,6.5,0,0,0-4,1.17,4,4,0,0,0-1.24,3.16v6.15a6.94,6.94,0,0,1-.89,3.9,4.39,4.39,0,0,1-2.86,1.72v.16a4.36,4.36,0,0,1,2.85,1.68,6.52,6.52,0,0,1,.9,3.76Z"/><path class="cls-7" d="M667.64,634.62a6.52,6.52,0,0,1,.9-3.76,4.36,4.36,0,0,1,2.85-1.68V629a4.3,4.3,0,0,1-2.85-1.7,6.88,6.88,0,0,1-.9-3.92v-6.15a4,4,0,0,0-1.24-3.16,6.47,6.47,0,0,0-4-1.17V611.1a8.3,8.3,0,0,1,5.39,1.56,5.66,5.66,0,0,1,1.86,4.59v7a3.81,3.81,0,0,0,1.1,3,5.37,5.37,0,0,0,3.54,1v1.61q-4.63.09-4.64,4.21v6.8a6,6,0,0,1-1.65,4.64c-1.11,1-3,1.52-5.6,1.52v-1.83a6.5,6.5,0,0,0,4.06-1.06,3.81,3.81,0,0,0,1.22-3.09Z"/><path class="cls-5" d="M112,593.78V510a2.43,2.43,0,0,0-2.43-2.44H2.44A2.44,2.44,0,0,0,0,510v83.78a2.43,2.43,0,0,0,2.44,2.43H109.6A2.43,2.43,0,0,0,112,593.78Zm-4.87-2.44H4.87V512.43H107.16Z"/><path class="cls-5" d="M15.31,577.38H96.72a2.43,2.43,0,0,0,2.43-2.44V520.06a2.43,2.43,0,0,0-2.43-2.43H15.31a2.43,2.43,0,0,0-2.43,2.43v54.88A2.43,2.43,0,0,0,15.31,577.38Zm2.44-54.88H94.28v50H17.75Z"/><path class="cls-5" d="M56,579.29a5.24,5.24,0,1,0,5.24,5.23A5.24,5.24,0,0,0,56,579.29Zm0,7.55a2.32,2.32,0,1,1,2.32-2.32A2.32,2.32,0,0,1,56,586.84Z"/><path class="cls-5" d="M84.15,612.52a2.43,2.43,0,0,0,2.43-2.44v-8.51a2.43,2.43,0,0,0-2.43-2.43H27.88a2.43,2.43,0,0,0-2.43,2.43v8.51a2.43,2.43,0,0,0,2.43,2.44ZM30.32,604H81.71v3.64H30.32Z"/><path class="cls-5" d="M168.87,552H129.72a1.17,1.17,0,0,0-1.17,1.17v26.39a1.17,1.17,0,0,0,1.17,1.17h39.15a1.17,1.17,0,0,0,1.17-1.17V553.12A1.17,1.17,0,0,0,168.87,552Zm-1.17,26.39H130.89V554.29H167.7Z"/><path class="cls-5" d="M185.72,593.08a.19.19,0,0,0,0-.08l0-.13,0-.08-.08-.13s0,0,0,0a.65.65,0,0,0-.13-.16s0,0,0,0l-.12-.1-.07,0-.08,0-8.86-4.38V548.28a1.17,1.17,0,0,0-1.17-1.17H123.53a1.17,1.17,0,0,0-1.17,1.17v39.57l-8.59,4.38-.07,0-.07.05a.31.31,0,0,0-.11.09.1.1,0,0,0,0,0,.65.65,0,0,0-.13.16l0,0a1.3,1.3,0,0,0-.08.17s0,0,0,.07a.65.65,0,0,0,0,.13s0,0,0,.08,0,.09,0,.14,0,0,0,0v3.18a1.17,1.17,0,0,0,1.18,1.17h70.26a1.17,1.17,0,0,0,1.17-1.17v-3.23C185.73,593.17,185.73,593.12,185.72,593.08Zm-61-43.63h49.19v37.94H124.7Zm-.89,40.29h51l4.78,2.36H119.18Zm59.59,5.54H115.48v-.84H183.4Z"/><path class="cls-5" d="M149.76,581.34a2.52,2.52,0,1,0,2.52,2.52A2.51,2.51,0,0,0,149.76,581.34Zm0,3.63a1.11,1.11,0,1,1,1.12-1.11A1.11,1.11,0,0,1,149.76,585Z"/><path class="cls-13" d="M211.66,557.37H191.17a3.51,3.51,0,0,0-3.51,3.51V594.4a3.51,3.51,0,0,0,3.51,3.51h20.49a3.51,3.51,0,0,0,3.51-3.51V560.88A3.51,3.51,0,0,0,211.66,557.37Zm1.88,37a1.88,1.88,0,0,1-1.88,1.88H191.17a1.88,1.88,0,0,1-1.88-1.88V560.88a1.88,1.88,0,0,1,1.88-1.88h20.49a1.88,1.88,0,0,1,1.88,1.88Z"/><path class="cls-13" d="M201.41,559.85a.38.38,0,1,0-.37-.38A.38.38,0,0,0,201.41,559.85Z"/><path class="cls-13" d="M200,561.37h2.83a.38.38,0,0,0,0-.76H200a.38.38,0,0,0,0,.76Z"/><path class="cls-13" d="M198.74,561.28a.29.29,0,1,0-.29-.29A.29.29,0,0,0,198.74,561.28Z"/><path class="cls-13" d="M201.41,591.54a2.3,2.3,0,1,0,2.3,2.29A2.3,2.3,0,0,0,201.41,591.54Zm0,3.77a1.48,1.48,0,1,1,1.49-1.48A1.48,1.48,0,0,1,201.41,595.31Z"/><path class="cls-13" d="M211,562.18H191.8a.41.41,0,0,0-.41.41v28.48a.41.41,0,0,0,.41.41H211a.41.41,0,0,0,.41-.41V562.59A.41.41,0,0,0,211,562.18Zm-.41,28.48H192.21V563h18.41Z"/></g></g></g></g></svg>