<svg xmlns="http://www.w3.org/2000/svg" viewBox="0 0 860.37 872.78"><defs><style>.cls-1{isolation:isolate;}.cls-2{fill:none;stroke:#fff;stroke-miterlimit:10;stroke-width:4px;}.cls-3{fill:#f4f4f4;}.cls-4{font-size:34.85px;fill:#edf4f3;font-family:OpenSans-Light, Open Sans;font-weight:300;}.cls-10,.cls-12,.cls-5{fill:#fff;}.cls-6{fill:#f9f9f9;}.cls-7{fill:#005e9c;}.cls-8{opacity:0.5;mix-blend-mode:overlay;}.cls-10,.cls-9{font-size:17.79px;letter-spacing:0.03em;}.cls-11,.cls-9{fill:#231f20;}.cls-10,.cls-11,.cls-12,.cls-9{font-family:OpenSans-Semibold, Open Sans;font-weight:600;}.cls-11,.cls-12{font-size:20.07px;letter-spacing:0.02em;}.cls-13{fill:#f1f1f2;}</style></defs><title>Asset 2</title><g class="cls-1"><g id="Layer_2" data-name="Layer 2"><g id="Infographic"><g id="Main_image" data-name="Main image"><path class="cls-2" d="M125.33,205.23c10.94-12.14,136.57-147.93,300.29-151,186-3.49,408.09,164.61,408.09,408.27C833.71,688,651,870.78,425.62,870.78c-183.57,0-320.69-146.71-325.14-176.35"/><path class="cls-3" d="M85.74,305.53l5.8,0a60.41,60.41,0,0,0,0-120.71l-5.75,0-.05,0a60.42,60.42,0,0,0,0,120.67ZM49.27,284.25a68,68,0,0,1,12.35-7.1A72.28,72.28,0,0,0,78.82,300,55.91,55.91,0,0,1,49.27,284.25Zm37.37,16.12A69,69,0,0,1,66,275.4a70.1,70.1,0,0,1,20.67-4.11Zm0-33.75a74.54,74.54,0,0,0-22.56,4.5,69,69,0,0,1-4.82-21.6l27.38,0Zm0-21.79-27.53,0a69.71,69.71,0,0,1,3.76-22.35,73.4,73.4,0,0,0,23.77,5Zm11.69,55.31a72.29,72.29,0,0,0,17.77-23.83,67.22,67.22,0,0,1,13.29,7.22A55.66,55.66,0,0,1,98.33,300.14ZM132.48,280a72.12,72.12,0,0,0-14.58-8,73.51,73.51,0,0,0,4.82-22.52h21.8A55.23,55.23,0,0,1,132.48,280Zm1.74-67.29a55.21,55.21,0,0,1,10.47,32.1H122.86A74.38,74.38,0,0,0,119,221.56,73.55,73.55,0,0,0,134.22,212.7ZM131.34,209a68.94,68.94,0,0,1-13.91,8.15,73.23,73.23,0,0,0-19.11-26.93A55.5,55.5,0,0,1,131.34,209Zm-40-18.52a68.51,68.51,0,0,1,21.77,28.4,68.44,68.44,0,0,1-21.77,4Zm0,37.09a73.2,73.2,0,0,0,23.38-4.31,69.74,69.74,0,0,1,3.5,21.53l-26.88,0Zm0,21.91,26.74,0a69.26,69.26,0,0,1-4.53,20.9,74.23,74.23,0,0,0-22.21-3.81Zm0,21.73a70,70,0,0,1,20.38,3.46,69.06,69.06,0,0,1-20.38,25.2ZM86.64,190v32.84a68.74,68.74,0,0,1-22.09-4.72A68.69,68.69,0,0,1,86.64,190Zm-7.82.38a73.3,73.3,0,0,0-18.56,25.88,69.27,69.27,0,0,1-12.95-8A55.66,55.66,0,0,1,78.82,190.39ZM44.36,211.85a73.16,73.16,0,0,0,14.21,8.78,74.5,74.5,0,0,0-4.13,24.22H33.25A55.09,55.09,0,0,1,44.36,211.85ZM33.43,249.53H54.58a73.55,73.55,0,0,0,5.17,23.35,72.69,72.69,0,0,0-13.63,7.9A55.07,55.07,0,0,1,33.43,249.53Z"/><text class="cls-4" transform="translate(49.97 344.75)">open url</text><text class="cls-4" transform="translate(598.04 406.99)">one code</text><text class="cls-4" transform="translate(494.35 740.43)">CSS3 media<tspan x="0" y="41.82">queries</tspan></text><text class="cls-4" transform="translate(193.65 738.95)">multiple <tspan x="0" y="41.82">device</tspan></text><text class="cls-4" transform="translate(310.67 149.13)">single content</text><path class="cls-5" d="M463.64,0H388.47a7.21,7.21,0,0,0-7.16,7.16v93.11a7.18,7.18,0,0,0,7.16,7.16h75.17a7.06,7.06,0,0,0,2.94-.64,7.19,7.19,0,0,0,4.22-6.52V7.16A7.18,7.18,0,0,0,463.64,0Zm-8.48,93.11H397a3.59,3.59,0,0,1,0-7.17h58.21a3.59,3.59,0,0,1,0,7.17Zm0-17.91H397A3.58,3.58,0,1,1,397,68h58.21a3.58,3.58,0,0,1,0,7.16Zm0-17.9H397a3.59,3.59,0,0,1,0-7.17h58.21a3.59,3.59,0,0,1,0,7.17Zm0-17.91H397a3.58,3.58,0,1,1,0-7.16h58.21a3.58,3.58,0,0,1,0,7.16Zm0-17.9H397a3.59,3.59,0,0,1,0-7.17h58.21a3.59,3.59,0,0,1,0,7.17Z"/><rect class="cls-6" x="758.74" y="355.98" width="101.63" height="91.96"/><polygon class="cls-7" points="860.37 359.66 860.37 354.06 827.18 354.06 827.18 320.85 758.74 320.85 758.74 359.66 860.37 359.66"/><polygon class="cls-7" points="829.43 320.85 829.43 351.81 860.37 351.81 829.43 320.85"/><g class="cls-8"><text class="cls-9" transform="translate(769.49 347.49)">HTML</text></g><text class="cls-10" transform="translate(769.13 347.13)">HTML</text><path class="cls-7" d="M798.68,413.26l-19.17-10v-1.48l19.17-11.44v2.29L782,402.37l16.64,8.57Z"/><path class="cls-7" d="M815.58,384.38l-11,35.31h-2.11l11-35.31Z"/><path class="cls-7" d="M819.35,410.94,836,402.37l-16.63-9.78V390.3l19.16,11.44v1.48l-19.16,10Z"/><rect class="cls-6" x="699.49" y="679.16" width="103.11" height="93.71"/><polygon class="cls-7" points="802.6 683.29 802.6 677.61 768.92 677.61 768.92 643.91 699.49 643.91 699.49 683.29 802.6 683.29"/><polygon class="cls-7" points="771.21 643.91 771.21 675.32 802.6 675.32 771.21 643.91"/><g class="cls-8"><text class="cls-11" transform="translate(710.39 671.52)">CSS</text></g><text class="cls-12" transform="translate(710.03 671.16)">CSS</text><path class="cls-7" d="M758.39,738.34a1.76,1.76,0,1,1-1.75-1.76A1.75,1.75,0,0,1,758.39,738.34Z"/><path class="cls-7" d="M744.45,738.34a1.76,1.76,0,1,1-1.76-1.76A1.75,1.75,0,0,1,744.45,738.34Z"/><path class="cls-7" d="M729.32,740.8a4.36,4.36,0,0,0,1.39,3.55c.92.79,2.49,1.2,4.7,1.25v2.12q-4.53,0-6.45-1.75c-1.28-1.16-1.92-3-1.92-5.38v-7.84q0-4.79-5.35-4.87V726a6.14,6.14,0,0,0,4.09-1.19,4.42,4.42,0,0,0,1.26-3.45v-8.15q0-7,8.37-7.1v2.1a7.54,7.54,0,0,0-4.65,1.35,4.54,4.54,0,0,0-1.44,3.65v7.11a8,8,0,0,1-1,4.51,5.05,5.05,0,0,1-3.31,2V727a5.08,5.08,0,0,1,3.3,1.94,7.6,7.6,0,0,1,1,4.35Z"/><path class="cls-7" d="M771.11,733.31a7.68,7.68,0,0,1,1-4.35,5.08,5.08,0,0,1,3.3-1.94v-.19a5.05,5.05,0,0,1-3.3-2,8.13,8.13,0,0,1-1-4.54v-7.11a4.59,4.59,0,0,0-1.43-3.64,7.52,7.52,0,0,0-4.67-1.36v-2.1a9.51,9.51,0,0,1,6.22,1.81,6.5,6.5,0,0,1,2.16,5.29v8.15a4.37,4.37,0,0,0,1.27,3.46,6.2,6.2,0,0,0,4.08,1.18v1.86c-3.56.06-5.35,1.68-5.35,4.87v7.84q0,3.61-1.92,5.37T765,747.72V745.6c2.19,0,3.75-.44,4.69-1.23a4.37,4.37,0,0,0,1.41-3.57Z"/><path class="cls-5" d="M129.39,686.11V589.3a2.81,2.81,0,0,0-2.81-2.81H2.81A2.81,2.81,0,0,0,0,589.3v96.81a2.81,2.81,0,0,0,2.81,2.82H126.58A2.81,2.81,0,0,0,129.39,686.11Zm-5.62-2.81H5.63V592.12H123.77Z"/><path class="cls-5" d="M17.68,667.16h94a2.81,2.81,0,0,0,2.81-2.81V600.94a2.81,2.81,0,0,0-2.81-2.82h-94a2.81,2.81,0,0,0-2.81,2.82v63.41A2.81,2.81,0,0,0,17.68,667.16Zm2.82-63.41h88.4v57.79H20.5Z"/><path class="cls-5" d="M64.7,669.37a6.05,6.05,0,1,0,6,6A6.05,6.05,0,0,0,64.7,669.37Zm0,8.72a2.67,2.67,0,1,1,2.67-2.67A2.68,2.68,0,0,1,64.7,678.09Z"/><path class="cls-5" d="M97.19,707.77A2.81,2.81,0,0,0,100,705v-9.83a2.81,2.81,0,0,0-2.81-2.82h-65a2.81,2.81,0,0,0-2.81,2.82V705a2.81,2.81,0,0,0,2.81,2.82ZM35,697.93H94.38v4.21H35Z"/><path class="cls-5" d="M195,637.78H149.83a1.36,1.36,0,0,0-1.36,1.35v30.49a1.36,1.36,0,0,0,1.36,1.36H195a1.36,1.36,0,0,0,1.35-1.36V639.13A1.36,1.36,0,0,0,195,637.78Zm-1.36,30.49h-42.5V640.49h42.5Z"/><path class="cls-5" d="M214.5,685.3a.29.29,0,0,0,0-.09.83.83,0,0,0,0-.15l0-.09-.09-.15,0-.06c0-.06-.1-.13-.16-.19l0,0-.14-.11-.08,0-.1-.06-10.23-5.06V633.54a1.35,1.35,0,0,0-1.35-1.35H142.68a1.35,1.35,0,0,0-1.36,1.35v45.72l-9.92,5.06-.08,0-.08,0a.69.69,0,0,0-.13.11l-.06.05-.15.19s0,0,0,0a1.18,1.18,0,0,0-.11.19l0,.08c0,.05,0,.1,0,.15a.36.36,0,0,0,0,.1.88.88,0,0,0,0,.16v3.73a1.34,1.34,0,0,0,1.35,1.35h81.15a1.34,1.34,0,0,0,1.35-1.35v-3.73A1,1,0,0,0,214.5,685.3ZM144,634.89h56.8v43.85H144Zm-1,46.55h58.87l5.52,2.73H137.65Zm68.82,6.41H133.37v-1h78.45Z"/><path class="cls-5" d="M173,671.75a2.91,2.91,0,1,0,2.91,2.9A2.91,2.91,0,0,0,173,671.75Zm0,4.19a1.29,1.29,0,1,1,1.29-1.29A1.28,1.28,0,0,1,173,675.94Z"/><path class="cls-13" d="M244.47,644H220.79a4.06,4.06,0,0,0-4,4.06v38.73a4.06,4.06,0,0,0,4,4h23.68a4.06,4.06,0,0,0,4.05-4V648.1A4.06,4.06,0,0,0,244.47,644Zm2.17,42.79a2.17,2.17,0,0,1-2.17,2.17H220.79a2.17,2.17,0,0,1-2.17-2.17V648.1a2.18,2.18,0,0,1,2.17-2.18h23.68a2.18,2.18,0,0,1,2.17,2.18Z"/><path class="cls-13" d="M232.63,646.9a.44.44,0,0,0,.44-.43.44.44,0,1,0-.88,0A.44.44,0,0,0,232.63,646.9Z"/><path class="cls-13" d="M231,648.66h3.26a.44.44,0,0,0,.44-.43.44.44,0,0,0-.44-.44H231a.44.44,0,0,0-.44.44A.44.44,0,0,0,231,648.66Z"/><path class="cls-13" d="M229.54,648.56a.34.34,0,1,0-.34-.33A.34.34,0,0,0,229.54,648.56Z"/><path class="cls-13" d="M232.63,683.52a2.66,2.66,0,1,0,2.65,2.65A2.65,2.65,0,0,0,232.63,683.52Zm0,4.36a1.71,1.71,0,1,1,1.71-1.71A1.71,1.71,0,0,1,232.63,687.88Z"/><path class="cls-13" d="M243.73,649.6h-22.2a.48.48,0,0,0-.48.47V683a.49.49,0,0,0,.48.48h22.2a.48.48,0,0,0,.47-.48V650.07A.47.47,0,0,0,243.73,649.6Zm-.47,32.91H222v-32h21.26Z"/></g></g></g></g></svg>