<svg xmlns="http://www.w3.org/2000/svg" viewBox="0 0 183 91.68"><defs><style>.cls-1{fill:#fff;}.cls-2{font-size:15px;fill:#edf4f3;font-family:OpenSans-Light, Open Sans;font-weight:300;}</style></defs><title>Asset 15</title><g id="Layer_2" data-name="Layer 2"><g id="Infographic"><g id="why_responsive_img2"><path class="cls-1" d="M98.45,75.31V2.13A2.13,2.13,0,0,0,96.31,0H2.14A2.13,2.13,0,0,0,0,2.13V75.31a2.13,2.13,0,0,0,2.14,2.13H96.31A2.13,2.13,0,0,0,98.45,75.31Zm-4.28-2.13H4.28V4.25H94.17Z"/><path class="cls-1" d="M13.46,61H85a2.13,2.13,0,0,0,2.14-2.13V10.92A2.13,2.13,0,0,0,85,8.79H13.46a2.14,2.14,0,0,0-2.15,2.13V58.86A2.14,2.14,0,0,0,13.46,61ZM15.6,13.05H82.85V56.73H15.6Z"/><path class="cls-1" d="M49.22,62.65a4.58,4.58,0,1,0,4.61,4.58A4.6,4.6,0,0,0,49.22,62.65Zm0,6.6a2,2,0,1,1,2-2A2,2,0,0,1,49.22,69.25Z"/><path class="cls-1" d="M74,91.68a2.13,2.13,0,0,0,2.14-2.13V82.12A2.13,2.13,0,0,0,74,80H24.5a2.13,2.13,0,0,0-2.14,2.13v7.43a2.13,2.13,0,0,0,2.14,2.13ZM26.64,84.25H71.81v3.18H26.64Z"/><text class="cls-2" transform="translate(109.7 16.72)">1.6 - billion</text><text class="cls-2" transform="translate(109.7 72.72)">1.4 - billion</text></g></g></g></svg>