<svg xmlns="http://www.w3.org/2000/svg" viewBox="0 0 158 92"><defs><style>.cls-1{fill:#f1f1f2;}.cls-2{font-size:14.85px;fill:#edf4f3;font-family:OpenSans-Light, Open Sans;font-weight:300;}</style></defs><title>Asset 14</title><g id="Layer_2" data-name="Layer 2"><g id="Infographic"><g id="why_responsive_img1"><path class="cls-1" d="M55,0H8A8,8,0,0,0,0,8V84a8,8,0,0,0,8,8H55a8,8,0,0,0,8-8V8A8,8,0,0,0,55,0Zm4.31,84A4.29,4.29,0,0,1,55,88.3H8A4.29,4.29,0,0,1,3.73,84V8A4.29,4.29,0,0,1,8,3.7H55A4.29,4.29,0,0,1,59.27,8Z"/><path class="cls-1" d="M31.5,5.62a.86.86,0,1,0-.87-.86A.85.85,0,0,0,31.5,5.62Z"/><path class="cls-1" d="M28.26,9.07h6.48a.85.85,0,0,0,0-1.7H28.26a.85.85,0,1,0,0,1.7Z"/><path class="cls-1" d="M25.37,8.88a.67.67,0,1,0-.67-.66A.67.67,0,0,0,25.37,8.88Z"/><path class="cls-1" d="M31.5,77.54a5.21,5.21,0,1,0,5.25,5.21A5.24,5.24,0,0,0,31.5,77.54Zm0,8.57a3.36,3.36,0,1,1,3.39-3.36A3.38,3.38,0,0,1,31.5,86.11Z"/><path class="cls-1" d="M53.51,10.91h-44a.94.94,0,0,0-.94.93V76.49a.93.93,0,0,0,.94.92h44a.92.92,0,0,0,.93-.92V11.84A.93.93,0,0,0,53.51,10.91Zm-.93,64.65H10.42V12.76H52.58Z"/><text class="cls-2" transform="translate(75.34 14.8) scale(1.01 1)">1.9 - billion</text><text class="cls-2" transform="translate(75.34 86.1) scale(1.01 1)">800 - million</text></g></g></g></svg>