<svg xmlns="http://www.w3.org/2000/svg" viewBox="0 0 158.16 92.9"><defs><style>.cls-1{fill:#f1f1f2;}.cls-2{font-size:15px;fill:#edf4f3;font-family:OpenSans-Light, Open Sans;font-weight:300;}</style></defs><title>Asset 9</title><g id="Layer_2" data-name="Layer 2"><g id="Infographic"><g id="why_responsive_img1"><path class="cls-1" d="M55,0H8A8.05,8.05,0,0,0,0,8V84.86a8.05,8.05,0,0,0,8,8H55a8.05,8.05,0,0,0,8-8V8A8.05,8.05,0,0,0,55,0Zm4.31,84.86A4.31,4.31,0,0,1,55,89.17H8a4.32,4.32,0,0,1-4.31-4.31V8A4.32,4.32,0,0,1,8,3.73H55A4.32,4.32,0,0,1,59.33,8Z"/><path class="cls-1" d="M31.53,5.68a.87.87,0,1,0,0-1.73.87.87,0,0,0,0,1.73Z"/><path class="cls-1" d="M28.29,9.16h6.48a.86.86,0,0,0,0-1.72H28.29a.86.86,0,1,0,0,1.72Z"/><path class="cls-1" d="M25.4,9a.67.67,0,1,0-.67-.67A.67.67,0,0,0,25.4,9Z"/><path class="cls-1" d="M31.53,78.3a5.26,5.26,0,1,0,5.26,5.26A5.27,5.27,0,0,0,31.53,78.3Zm0,8.66a3.4,3.4,0,1,1,3.39-3.4A3.4,3.4,0,0,1,31.53,87Z"/><path class="cls-1" d="M53.57,11H9.5a.94.94,0,0,0-.94.93V77.24a.94.94,0,0,0,.94.93H53.57a.93.93,0,0,0,.93-.93V12A.93.93,0,0,0,53.57,11ZM52.63,76.3H10.43V12.89h42.2Z"/><text class="cls-2" transform="translate(75.41 14.94)">1.9 - billion</text><text class="cls-2" transform="translate(75.41 86.94)">800 - million</text></g></g></g></svg>