<svg xmlns="http://www.w3.org/2000/svg" viewBox="0 0 656.43 98.28"><defs><style>.cls-1{fill:#fff;}.cls-2{fill:#f1f1f2;}</style></defs><title>Asset 11</title><g id="Layer_2" data-name="Layer 2"><g id="Infographic"><g id="key_feature_img"><rect class="cls-1" x="42.79" y="13.05" width="53.27" height="4.8"/><rect class="cls-1" x="42.79" y="27.79" width="48.8" height="4.8"/><rect class="cls-1" x="42.79" y="42.53" width="45.24" height="4.8"/><rect class="cls-1" x="42.79" y="57.27" width="54.17" height="4.8"/><rect class="cls-1" x="42.79" y="71.53" width="43.33" height="4.8"/><polygon class="cls-1" points="139.94 71.75 88.15 71.3 88.13 76.1 139.93 76.55 139.94 71.75"/><polygon class="cls-1" points="139.99 57.07 98.48 56.71 98.47 61.52 139.98 61.88 139.99 57.07"/><polygon class="cls-1" points="140.04 42.33 89.88 41.9 89.86 46.7 140.03 47.13 140.04 42.33"/><polygon class="cls-1" points="140.09 28.01 93.31 27.6 93.3 32.4 140.08 32.81 140.09 28.01"/><polygon class="cls-1" points="140.14 13.23 98.48 12.87 98.47 17.67 140.13 18.03 140.14 13.23"/><path class="cls-1" d="M186.72,62.76a6.26,6.26,0,0,0,.28-2l-.1-6.5c0-2.65-1.62-4.83-3.52-4.85l-16.93-.18,1.69-2.39.7-1a6.27,6.27,0,0,0-.1-6.81l-3-4.13a2.82,2.82,0,0,0-4.87-.07v0l-5.28,7.46-.39.55c-.82,1.17-2,2.81-3.06,4.32l0,.06-1.68,2.37-1.2,1.7-1.68,2.37a6.26,6.26,0,0,0,.11,6.8l3,4.14,5,6.85,5.9,8.13a2.82,2.82,0,0,0,4.88.06l2.88-4.08h0a6.26,6.26,0,0,0-.11-6.8l-2.49-3.44,3.45,0,13.48.14C185,65.58,186.2,64.42,186.72,62.76Z"/><path class="cls-1" d="M.25,52.08a7.3,7.3,0,0,0-.25,2l.06,6.5c0,2.65,1.41,4.78,3.08,4.74L18,64.94l-1.49,2.45-.62,1A7,7,0,0,0,16,75.21l2.62,4c1.19,1.84,3.12,1.8,4.28-.09h0l4.66-7.64.34-.56,2.7-4.42,0-.06L32.1,64l1.07-1.74,1.47-2.42a7,7,0,0,0-.06-6.81L32,49,27.6,42.32l-5.15-7.94c-1.2-1.85-3.13-1.8-4.29.1l-2.54,4.17h0a7,7,0,0,0,.07,6.8l2.18,3.36-3,.07L3,49.17C1.76,49.2.71,50.39.25,52.08Z"/><path class="cls-1" d="M307.24,16.07a2.07,2.07,0,0,0,.62-.48l1.61-1.91a1.67,1.67,0,0,0-.36-2.49L301.45,5.9l1.37-.17.58-.07a1.82,1.82,0,0,0,1.68-2l-.31-2.12A2,2,0,0,0,302.57,0h0l-4.3.52-.32,0-2.49.3h0l-1.37.17-1,.12-1.37.16a1.82,1.82,0,0,0-1.68,2l.31,2.12c.15,1,.38,2.55.52,3.52l.62,4.18a2,2,0,0,0,2.21,1.52l2.35-.28h0a1.83,1.83,0,0,0,1.68-2l-.26-1.76L299,11.71l6.1,4.21A2.17,2.17,0,0,0,307.24,16.07Z"/><path class="cls-1" d="M388.3,13.51a1.55,1.55,0,0,0,.36.6l1.55,1.64a1.92,1.92,0,0,0,2.5.18l6.61-5.12-.1,1.13,0,.47a1.67,1.67,0,0,0,1.63,1.73l2.13.15a1.74,1.74,0,0,0,1.9-1.47h0l.3-3.53,0-.26c0-.55.11-1.32.17-2V7c0-.41.07-.8.1-1.12l.07-.81.1-1.12A1.68,1.68,0,0,0,404,2.18L401.85,2l-3.53-.25-4.19-.29A1.74,1.74,0,0,0,392.22,3l-.16,1.93h0a1.67,1.67,0,0,0,1.63,1.72l1.77.12-1.35,1-5.26,4.07A1.53,1.53,0,0,0,388.3,13.51Z"/><path class="cls-1" d="M315.41,12.91h0a1.43,1.43,0,0,0-1,.36,1.15,1.15,0,0,0-.4.87V82.31a1.31,1.31,0,0,0,1.36,1.24l68.28.12h0a1.43,1.43,0,0,0,1-.36,1.15,1.15,0,0,0,.4-.87V14.27A1.29,1.29,0,0,0,383.69,13ZM382.33,81.2l-65.56-.12V15.38l65.56.12Z"/><path class="cls-1" d="M336.08,37.93a6.94,6.94,0,0,0,4.68-1.75,5.61,5.61,0,0,0,0-8.49,7,7,0,0,0-4.69-1.77h0c-3.66,0-6.63,2.69-6.64,6a5.73,5.73,0,0,0,1.94,4.25,7,7,0,0,0,4.69,1.76Zm-3.91-6a3.73,3.73,0,0,1,3.91-3.53h0a4.09,4.09,0,0,1,2.76,1,3.3,3.3,0,0,1,0,5,4.09,4.09,0,0,1-2.76,1h0a4.09,4.09,0,0,1-2.76-1A3.32,3.32,0,0,1,332.17,31.92Z"/><path class="cls-1" d="M322.91,66h53.38a1.3,1.3,0,0,0,1.36-1.23v-44a1.3,1.3,0,0,0-1.36-1.23H322.83a1.3,1.3,0,0,0-1.36,1.23V64.48a1,1,0,0,0,.09.43A1.31,1.31,0,0,0,322.91,66Zm52-2.78v.32H324.27V55.42L332.73,46,343,53.86a1.5,1.5,0,0,0,1,.28,1.39,1.39,0,0,0,.94-.48l14-16.58,16,14ZM324.19,22.08h50.73V47.67L359.73,34.34a1.45,1.45,0,0,0-1.05-.34,1.38,1.38,0,0,0-1,.48l-14,16.65-10.23-7.86a1.44,1.44,0,0,0-1-.29,1.38,1.38,0,0,0-.93.45l-7.3,8.16Z"/><path class="cls-1" d="M616.17,75.4V6.93a2,2,0,0,0-2-2H524.47a2,2,0,0,0-2,2V75.4a2,2,0,0,0,2,2h89.66A2,2,0,0,0,616.17,75.4Zm-4.07-2H526.5V8.92h85.6Z"/><path class="cls-1" d="M535.24,62h68.12a2,2,0,0,0,2-2V15.15a2,2,0,0,0-2-2H535.24a2,2,0,0,0-2,2V60A2,2,0,0,0,535.24,62Zm2-44.86h64V58h-64Z"/><path class="cls-1" d="M569.3,63.56a4.28,4.28,0,1,0,4.38,4.28A4.33,4.33,0,0,0,569.3,63.56Zm0,6.17a1.9,1.9,0,1,1,1.94-1.89A1.92,1.92,0,0,1,569.3,69.73Z"/><path class="cls-2" d="M651.89,40.71H625.37a4.5,4.5,0,0,0-4.54,4.44V87.5a4.49,4.49,0,0,0,4.54,4.43h26.52a4.49,4.49,0,0,0,4.54-4.43V45.15A4.5,4.5,0,0,0,651.89,40.71Zm2.43,46.79a2.41,2.41,0,0,1-2.43,2.38H625.37a2.41,2.41,0,0,1-2.43-2.38V45.15a2.41,2.41,0,0,1,2.43-2.38h26.52a2.41,2.41,0,0,1,2.43,2.38Z"/><path class="cls-2" d="M638.63,43.84a.48.48,0,1,0-.49-.48A.48.48,0,0,0,638.63,43.84Z"/><path class="cls-2" d="M636.8,45.76h3.66a.47.47,0,0,0,.48-.47.48.48,0,0,0-.48-.48H636.8a.49.49,0,0,0-.49.48A.48.48,0,0,0,636.8,45.76Z"/><path class="cls-2" d="M635.17,45.66a.38.38,0,0,0,.38-.37.38.38,0,0,0-.76,0A.38.38,0,0,0,635.17,45.66Z"/><path class="cls-2" d="M651.07,46.79H626.19a.52.52,0,0,0-.53.51v36a.52.52,0,0,0,.53.51h24.88a.51.51,0,0,0,.52-.51v-36A.51.51,0,0,0,651.07,46.79Zm-.53,36H626.72v-35h23.82Z"/><rect class="cls-1" x="42.79" y="86.28" width="36.52" height="4.8"/><polygon class="cls-1" points="139.89 86.47 81.27 85.97 81.25 90.77 139.88 91.28 139.89 86.47"/><path class="cls-1" d="M310.56,86.2a1.72,1.72,0,0,0-.2-.67l-1.13-2a2,2,0,0,0-2.47-.72l-8,3.72.4-1.12.17-.46a1.64,1.64,0,0,0-1.19-2.09l-2.1-.62a1.89,1.89,0,0,0-2.31,1.07h0l-1.24,3.49-.09.25c-.19.55-.47,1.32-.72,2v0c-.15.4-.28.79-.4,1.11L291,91l-.4,1.11a1.64,1.64,0,0,0,1.19,2.09l2.11.62,3.49,1,4.15,1.2A1.89,1.89,0,0,0,303.8,96l.68-1.9h0A1.63,1.63,0,0,0,303.29,92l-1.75-.51,1.64-.76,6.38-3A1.66,1.66,0,0,0,310.56,86.2Z"/><path class="cls-1" d="M389.67,83.59a1.59,1.59,0,0,0-.56.44l-1.43,1.73a1.53,1.53,0,0,0,.43,2.27l7.24,4.87-1.27.15-.52.06a1.58,1.58,0,0,0-1.49,1.81l.36,1.94a1.88,1.88,0,0,0,2.08,1.4h0l4-.45.28,0,2.3-.26h0l1.25-.14.9-.1,1.26-.15A1.59,1.59,0,0,0,406,95.3l-.36-1.94c-.17-.88-.44-2.33-.6-3.22l-.71-3.81a1.87,1.87,0,0,0-2.08-1.4l-2.16.25h0A1.59,1.59,0,0,0,398.58,87l.3,1.61-1.48-1-5.76-3.88A2,2,0,0,0,389.67,83.59Z"/><path class="cls-1" d="M592.84,90.71a2,2,0,0,0,2-2v-7a2,2,0,0,0-2-2H545.76a2,2,0,0,0-2,2v7a2,2,0,0,0,2,2Zm-45-6.95h43v3h-43Z"/><path class="cls-2" d="M638.63,83.89a2.9,2.9,0,1,0,3,2.9A2.94,2.94,0,0,0,638.63,83.89Zm0,4.77a1.87,1.87,0,1,1,1.91-1.87A1.9,1.9,0,0,1,638.63,88.66Z"/></g></g></g></svg>