<svg xmlns="http://www.w3.org/2000/svg" viewBox="0 0 183.34 91.68"><defs><style>.cls-1{fill:#fff;}.cls-2{font-size:15px;fill:#edf4f3;font-family:OpenSans-Light, Open Sans;font-weight:300;}</style></defs><title>Asset 10</title><g id="Layer_2" data-name="Layer 2"><g id="Infographic"><g id="why_responsive_img2"><path class="cls-1" d="M98.63,75.31V2.13A2.13,2.13,0,0,0,96.49,0H2.14A2.13,2.13,0,0,0,0,2.13V75.31a2.13,2.13,0,0,0,2.14,2.13H96.49A2.13,2.13,0,0,0,98.63,75.31Zm-4.29-2.13h-90V4.25H94.34Z"/><path class="cls-1" d="M13.48,61H85.15a2.14,2.14,0,0,0,2.15-2.13V10.92a2.14,2.14,0,0,0-2.15-2.13H13.48a2.14,2.14,0,0,0-2.14,2.13V58.86A2.14,2.14,0,0,0,13.48,61Zm2.14-47.94H83V56.73H15.62Z"/><path class="cls-1" d="M49.32,62.65a4.58,4.58,0,1,0,4.61,4.58A4.59,4.59,0,0,0,49.32,62.65Zm0,6.6a2,2,0,1,1,2-2A2,2,0,0,1,49.32,69.25Z"/><path class="cls-1" d="M74.09,91.68a2.13,2.13,0,0,0,2.14-2.13V82.12A2.13,2.13,0,0,0,74.09,80H24.55a2.14,2.14,0,0,0-2.15,2.13v7.43a2.14,2.14,0,0,0,2.15,2.13Zm-47.4-7.43H71.94v3.18H26.69Z"/><text class="cls-2" transform="translate(109.9 16.72)">1.6 - billion</text><text class="cls-2" transform="translate(109.9 72.72)">1.4 - billion</text></g></g></g></svg>